{"glyphs":{"0":{"ha":772,"x_min":50,"x_max":722,"o":"m 386 113 l 386 113 q 528 224 489 114 q 564 486 564 330 q 528 750 564 643 q 386 860 489 857 q 245 750 283 857 q 208 486 207 643 q 245 224 207 330 q 386 113 283 114 m 386 991 l 386 991 q 558 946 492 990 q 660 822 625 899 q 709 660 696 749 q 722 486 722 571 q 709 317 722 404 q 660 151 696 228 q 558 29 625 77 q 386 -20 492 -18 q 218 29 282 -18 q 115 151 153 77 q 65 317 79 228 q 50 486 50 404 q 65 660 50 571 q 115 822 79 749 q 218 946 153 899 q 386 991 282 990 "},"1":{"ha":772,"x_min":74,"x_max":486,"o":"m 74 686 l 74 811 q 257 848 176 810 q 357 972 338 886 l 486 972 l 486 0 l 313 0 l 313 686 l 74 686 "},"2":{"ha":772,"x_min":54,"x_max":720,"o":"m 718 142 l 718 0 l 54 0 q 268 368 64 239 q 368 437 317 403 q 461 507 419 471 q 533 589 505 545 q 561 688 559 632 q 557 745 564 715 q 532 800 551 775 q 482 844 514 828 q 397 860 448 860 q 269 790 306 859 q 231 616 233 721 l 72 616 q 160 886 72 783 q 407 991 244 990 q 557 964 497 991 q 652 890 618 936 q 705 794 690 846 q 720 693 720 742 q 652 501 718 579 q 503 366 589 424 q 343 258 416 309 q 282 204 307 232 q 244 142 256 175 l 718 142 "},"3":{"ha":772,"x_min":43,"x_max":729,"o":"m 317 452 l 317 570 q 465 600 400 567 q 532 722 530 635 q 490 822 530 786 q 380 860 448 859 q 260 799 300 859 q 220 661 218 739 l 61 661 q 153 899 68 806 q 383 991 237 990 q 594 928 503 991 q 690 732 688 861 q 553 524 690 581 l 553 521 q 684 439 637 503 q 729 278 728 374 q 628 61 726 139 q 385 -20 528 -18 q 132 75 216 -18 q 43 319 47 165 l 201 319 q 245 172 200 231 q 385 113 293 113 q 518 158 467 113 q 571 286 570 203 q 550 379 571 345 q 492 429 528 412 q 411 450 456 446 q 317 452 366 454 "},"4":{"ha":772,"x_min":33,"x_max":725,"o":"m 725 355 l 725 231 l 600 231 l 600 0 l 450 0 l 450 231 l 33 231 l 33 387 l 450 972 l 600 972 l 600 355 l 725 355 m 447 783 l 155 355 l 450 355 l 450 783 l 447 783 "},"5":{"ha":772,"x_min":49,"x_max":725,"o":"m 66 440 l 171 972 l 673 972 l 673 831 l 289 831 l 239 583 l 241 581 q 325 636 277 616 q 420 654 372 654 q 646 562 568 652 q 725 329 724 472 q 647 97 725 205 q 389 -20 567 -16 q 153 57 245 -18 q 49 277 58 130 l 207 277 q 386 113 227 114 q 528 176 488 114 q 567 326 567 237 q 524 469 567 411 q 382 529 477 528 q 289 511 332 529 q 225 440 245 492 l 66 440 "},"6":{"ha":772,"x_min":45,"x_max":725,"o":"m 396 113 l 396 113 q 525 176 482 114 q 567 315 567 236 q 525 454 567 397 q 396 514 482 513 q 267 456 311 513 q 221 315 221 399 q 267 175 221 233 q 396 113 311 114 m 707 726 l 549 726 q 507 823 543 787 q 407 860 469 860 q 306 826 343 859 q 245 742 267 793 q 218 633 227 690 q 205 526 210 576 l 208 524 q 418 639 281 639 q 644 546 565 637 q 725 313 725 456 q 637 77 724 168 q 401 -20 550 -18 q 118 129 192 -17 q 47 489 45 272 q 127 829 46 673 q 414 991 211 986 q 615 920 533 990 q 707 726 697 847 "},"7":{"ha":772,"x_min":49,"x_max":714,"o":"m 49 831 l 49 972 l 714 972 l 714 840 q 351 0 400 513 l 178 0 q 553 831 231 476 l 49 831 "},"8":{"ha":772,"x_min":43,"x_max":729,"o":"m 386 106 l 386 106 q 519 154 468 106 q 571 286 570 200 q 519 412 570 368 q 386 457 468 457 q 256 412 306 457 q 201 286 203 368 q 256 154 203 200 q 386 106 306 106 m 386 -20 l 386 -20 q 142 62 236 -18 q 43 286 45 143 q 221 524 47 476 l 221 526 q 83 726 85 581 q 386 991 86 987 q 689 726 685 987 q 551 526 688 581 l 551 524 q 729 286 725 476 q 632 62 728 143 q 386 -20 538 -18 m 386 867 l 386 867 q 279 829 322 867 q 233 718 235 791 q 278 614 233 650 q 386 575 321 575 q 497 614 454 575 q 539 718 538 650 q 496 829 538 791 q 386 867 453 867 "},"9":{"ha":772,"x_min":47,"x_max":726,"o":"m 375 860 l 375 860 q 249 802 290 859 q 205 661 205 743 q 249 521 205 579 q 375 457 290 458 q 509 519 465 458 q 551 661 551 579 q 509 800 551 743 q 375 860 465 859 m 65 245 l 224 245 q 268 150 231 186 q 366 113 304 113 q 469 149 431 113 q 528 232 509 180 q 557 340 549 283 q 567 446 565 397 l 564 448 q 354 332 494 333 q 134 422 215 333 q 47 660 49 510 q 136 897 47 804 q 382 991 222 990 q 657 844 585 989 q 725 484 726 701 q 646 146 726 301 q 358 -20 561 -14 q 158 56 240 -18 q 65 245 75 126 "}," ":{"ha":386,"x_min":0,"x_max":0,"o":""}," ":{"ha":386,"x_min":0,"x_max":0,"o":""},"!":{"ha":386,"x_min":100,"x_max":286,"o":"m 107 705 l 107 991 l 281 991 l 281 705 l 235 277 l 153 277 l 107 705 m 100 0 l 100 174 l 286 174 l 286 0 l 100 0 "},"\"":{"ha":616,"x_min":115,"x_max":501,"o":"m 115 600 l 115 991 l 257 991 l 257 600 l 115 600 m 359 600 l 359 991 l 501 991 l 501 600 l 359 600 "},"#":{"ha":772,"x_min":47,"x_max":728,"o":"m 688 396 l 688 292 l 555 292 l 514 0 l 403 0 l 443 292 l 290 292 l 249 0 l 138 0 l 178 292 l 47 292 l 47 396 l 193 396 l 218 576 l 87 576 l 87 680 l 232 680 l 272 972 l 385 972 l 343 680 l 497 680 l 538 972 l 650 972 l 608 680 l 728 680 l 728 576 l 594 576 l 570 396 l 688 396 m 484 576 l 329 576 l 304 396 l 458 396 l 484 576 "},"$":{"ha":772,"x_min":24,"x_max":749,"o":"m 419 425 l 419 101 q 543 146 496 107 q 590 267 590 184 q 578 335 590 306 q 538 378 562 361 q 485 407 514 397 q 419 425 453 416 l 419 425 m 24 301 l 182 301 q 359 101 175 113 l 359 437 q 249 476 302 454 q 146 530 192 497 q 74 616 101 565 q 45 743 45 668 q 140 946 46 876 q 359 1015 232 1015 l 359 1124 l 419 1124 l 419 1015 q 635 950 549 1015 q 724 745 722 882 l 565 745 q 419 890 564 889 l 419 597 q 647 503 551 568 q 722 418 694 469 q 749 289 749 366 q 654 58 747 135 q 419 -24 562 -18 l 419 -132 l 359 -132 l 359 -24 q 117 64 207 -20 q 24 301 25 146 m 359 612 l 359 890 q 203 754 204 893 q 253 659 204 689 q 359 612 298 627 "},"%":{"ha":1389,"x_min":113,"x_max":1275,"o":"m 361 -33 l 901 1006 l 1007 1006 l 469 -33 l 361 -33 m 1043 -20 l 1043 -20 q 865 62 920 -17 q 811 257 810 142 q 867 453 811 372 q 1043 533 922 532 q 1221 453 1165 532 q 1275 257 1275 372 q 1223 62 1275 142 q 1043 -20 1169 -17 m 936 257 l 936 257 q 960 126 936 178 q 1042 71 985 71 q 1126 126 1100 71 q 1150 257 1150 178 q 1129 386 1150 330 q 1042 443 1105 441 q 957 386 979 441 q 936 257 935 330 m 346 439 l 346 439 q 168 521 222 440 q 114 715 113 600 q 170 911 114 831 q 346 991 225 990 q 524 911 468 990 q 578 715 578 831 q 526 521 578 600 q 346 439 472 440 m 239 715 l 239 715 q 262 585 239 636 q 345 529 288 529 q 429 585 403 529 q 453 715 453 636 q 432 844 453 789 q 345 901 408 900 q 260 844 282 900 q 239 715 237 789 "},"&":{"ha":900,"x_min":45,"x_max":920,"o":"m 419 897 l 419 897 q 346 868 375 897 q 314 787 314 839 q 323 743 314 764 q 346 700 333 721 q 404 622 375 660 l 404 622 q 486 689 452 652 q 521 783 519 726 q 494 867 521 835 q 419 897 467 897 m 355 458 l 355 458 q 309 432 335 446 q 258 397 282 418 q 220 349 235 378 q 203 272 203 318 q 250 150 203 193 q 362 106 293 106 q 437 119 407 106 q 489 147 468 130 q 550 216 529 184 l 355 458 m 635 111 l 635 111 q 357 -20 528 -21 q 134 58 220 -18 q 45 275 46 135 q 117 450 46 380 q 272 562 183 519 q 204 664 233 612 q 172 779 172 715 q 244 953 174 889 q 415 1015 313 1014 q 587 957 515 1015 q 663 778 661 897 q 610 628 661 690 q 484 526 558 565 l 637 340 l 637 340 q 656 396 647 362 q 668 473 664 427 l 807 473 q 729 231 794 340 l 920 0 l 725 0 l 635 111 "},"’":{"ha":386,"x_min":107,"x_max":281,"o":"m 107 600 l 107 680 q 175 724 157 689 q 192 804 192 758 l 107 804 l 107 991 l 281 991 l 281 804 q 235 668 279 724 q 107 600 189 612 "},"(":{"ha":386,"x_min":68,"x_max":397,"o":"m 397 -265 l 268 -265 q 126 24 183 -134 q 68 375 69 179 q 268 1015 71 717 l 397 1015 q 227 375 228 721 q 397 -265 225 29 "},")":{"ha":386,"x_min":-11,"x_max":318,"o":"m -11 1015 l 118 1015 q 260 729 204 883 q 318 374 317 572 q 118 -265 315 32 l -11 -265 q 160 374 158 28 q -11 1015 161 720 "},"*":{"ha":514,"x_min":26,"x_max":489,"o":"m 180 742 l 26 794 l 57 884 l 57 884 l 210 825 l 210 825 l 210 991 l 304 991 l 304 825 l 304 825 l 456 884 l 456 884 l 489 794 l 330 742 l 428 611 l 354 557 l 354 557 l 256 693 l 256 693 l 161 557 l 161 557 l 83 611 l 180 742 "},"+":{"ha":833,"x_min":66,"x_max":766,"o":"m 346 422 l 346 703 l 488 703 l 488 422 l 766 422 l 766 281 l 488 281 l 488 0 l 346 0 l 346 281 l 66 281 l 66 422 l 346 422 "},",":{"ha":386,"x_min":96,"x_max":289,"o":"m 96 0 l 96 187 l 289 187 l 289 0 q 237 -143 288 -86 q 101 -220 186 -201 l 101 -220 l 101 -135 q 171 -82 147 -121 q 192 0 195 -45 l 96 0 "},"-":{"ha":541,"x_min":68,"x_max":472,"o":"m 68 302 l 68 453 l 472 453 l 472 302 l 68 302 "},"­":{"ha":541,"x_min":68,"x_max":472,"o":"m 68 302 l 68 453 l 472 453 l 472 302 l 68 302 "},".":{"ha":386,"x_min":96,"x_max":289,"o":"m 96 0 l 96 187 l 289 187 l 289 0 l 96 0 "},"/":{"ha":489,"x_min":-31,"x_max":519,"o":"m -31 -24 l 368 1015 l 519 1015 l 121 -24 l -31 -24 "},":":{"ha":386,"x_min":96,"x_max":289,"o":"m 96 515 l 96 703 l 289 703 l 289 515 l 96 515 m 96 0 l 96 187 l 289 187 l 289 0 l 96 0 "},";":{"ha":386,"x_min":96,"x_max":289,"o":"m 96 0 l 96 187 l 289 187 l 289 0 q 237 -143 288 -86 q 101 -220 186 -201 l 101 -220 l 101 -135 q 171 -82 147 -121 q 192 0 195 -45 l 96 0 m 96 515 l 96 703 l 289 703 l 289 515 l 96 515 "},"<":{"ha":833,"x_min":64,"x_max":770,"o":"m 770 -11 l 770 -11 l 64 301 l 64 401 l 770 714 l 770 714 l 770 572 l 250 351 l 770 130 l 770 -11 "},"=":{"ha":833,"x_min":66,"x_max":766,"o":"m 766 562 l 766 420 l 66 420 l 66 562 l 766 562 m 766 282 l 766 140 l 66 140 l 66 282 l 766 282 "},">":{"ha":833,"x_min":64,"x_max":770,"o":"m 64 130 l 583 351 l 64 572 l 64 714 l 64 714 l 770 401 l 770 301 l 64 -11 l 64 -11 l 64 130 "},"?":{"ha":772,"x_min":68,"x_max":704,"o":"m 227 676 l 68 676 q 158 924 69 832 q 401 1015 248 1014 q 616 943 532 1015 q 704 734 703 871 q 694 651 704 688 q 667 590 684 616 q 628 545 650 565 q 582 504 606 525 q 534 463 557 484 q 496 415 513 441 q 471 355 479 390 q 460 269 460 319 l 310 269 q 338 448 310 389 q 418 551 364 507 q 497 625 465 589 q 530 729 529 663 q 518 803 530 772 q 482 850 503 832 q 395 883 436 883 q 268 828 310 883 q 227 676 227 772 m 289 0 l 289 174 l 475 174 l 475 0 l 289 0 "},"@":{"ha":1111,"x_min":68,"x_max":1043,"o":"m 501 300 l 501 300 q 579 326 543 300 q 639 387 614 350 q 692 547 690 467 q 660 633 690 599 q 582 669 629 668 q 505 647 541 669 q 444 587 469 623 q 390 427 390 511 q 420 336 390 371 q 501 300 452 300 m 854 753 l 754 387 q 743 325 743 354 q 768 292 742 293 q 892 379 836 293 q 949 591 947 461 q 840 838 946 749 q 578 925 734 924 q 292 804 399 922 q 179 509 180 688 q 297 187 180 304 q 590 66 411 68 q 903 204 781 68 l 1000 204 q 585 -24 854 -20 q 220 126 366 -21 q 68 514 71 272 q 220 871 71 730 q 578 1015 366 1013 q 904 903 770 1014 q 1043 608 1040 791 q 1010 428 1042 504 q 922 298 975 351 q 715 195 811 195 q 660 215 684 195 q 633 275 636 236 l 631 275 q 562 221 603 243 q 475 196 521 196 q 332 261 387 197 q 272 414 272 322 q 357 661 272 553 q 576 774 439 771 q 732 673 677 775 l 732 673 l 757 753 l 854 753 "},"A":{"ha":926,"x_min":-9,"x_max":937,"o":"m 460 821 l 310 395 l 612 395 l 464 821 l 460 821 m -9 0 l 371 991 l 555 991 l 937 0 l 751 0 l 659 262 l 262 262 l 170 0 l -9 0 "},"B":{"ha":978,"x_min":106,"x_max":926,"o":"m 279 452 l 279 142 l 586 142 q 753 298 750 143 q 586 452 750 450 l 279 452 m 106 0 l 106 991 l 587 991 q 802 932 722 991 q 882 746 880 871 q 741 534 880 594 l 741 532 q 926 277 925 486 q 842 81 926 158 q 561 0 754 1 l 106 0 m 279 850 l 279 576 l 562 576 q 668 612 627 576 q 708 714 707 647 q 562 850 707 852 l 279 850 "},"C":{"ha":1003,"x_min":53,"x_max":950,"o":"m 949 676 l 775 676 q 696 818 755 764 q 528 873 636 872 q 298 757 371 871 q 227 496 225 646 q 298 236 225 349 q 528 118 371 121 q 708 195 644 119 q 781 378 771 268 l 950 378 q 825 89 937 199 q 528 -24 713 -22 q 179 130 304 -20 q 53 496 53 278 q 179 863 53 715 q 528 1015 304 1013 q 815 926 700 1015 q 949 676 930 838 "},"D":{"ha":1003,"x_min":106,"x_max":954,"o":"m 279 850 l 279 142 l 450 142 q 718 244 650 143 q 768 358 754 293 q 779 425 777 390 q 781 496 781 461 q 718 749 783 650 q 618 823 684 797 q 450 850 551 850 l 279 850 m 106 0 l 106 991 l 517 991 q 851 847 745 989 q 954 496 954 707 q 851 146 954 286 q 517 0 745 3 l 106 0 "},"E":{"ha":875,"x_min":106,"x_max":829,"o":"m 106 0 l 106 991 l 819 991 l 819 842 l 279 842 l 279 582 l 779 582 l 779 440 l 279 440 l 279 150 l 829 150 l 829 0 l 106 0 "},"F":{"ha":823,"x_min":106,"x_max":790,"o":"m 106 0 l 106 991 l 790 991 l 790 842 l 279 842 l 279 582 l 728 582 l 728 440 l 279 440 l 279 0 l 106 0 "},"G":{"ha":1054,"x_min":60,"x_max":970,"o":"m 970 522 l 970 0 l 860 0 l 833 117 l 833 117 q 534 -24 705 -28 q 186 130 311 -20 q 60 496 60 278 q 186 863 60 715 q 534 1015 311 1013 q 819 930 701 1015 q 960 676 937 846 l 790 676 q 704 825 775 775 q 534 873 631 873 q 306 757 378 871 q 233 496 232 646 q 306 236 232 349 q 534 118 378 121 q 812 390 806 126 l 549 390 l 549 522 l 970 522 "},"H":{"ha":1003,"x_min":101,"x_max":900,"o":"m 101 0 l 101 991 l 275 991 l 275 597 l 726 597 l 726 991 l 900 991 l 900 0 l 726 0 l 726 447 l 275 447 l 275 0 l 101 0 "},"I":{"ha":386,"x_min":106,"x_max":279,"o":"m 106 0 l 106 991 l 279 991 l 279 0 l 106 0 "},"J":{"ha":746,"x_min":17,"x_max":640,"o":"m 640 991 l 640 319 q 631 195 640 256 q 585 85 619 134 q 488 7 551 36 q 314 -24 422 -22 q 89 68 158 -22 q 18 294 17 157 l 18 347 l 192 347 l 192 296 q 221 165 191 212 q 328 118 250 118 q 440 170 411 118 q 467 310 468 218 l 467 991 l 640 991 "},"K":{"ha":951,"x_min":106,"x_max":962,"o":"m 106 0 l 106 991 l 279 991 l 279 541 l 279 541 l 721 991 l 935 991 l 539 596 l 962 0 l 746 0 l 420 473 l 420 473 l 279 333 l 279 0 l 106 0 "},"L":{"ha":797,"x_min":106,"x_max":783,"o":"m 106 0 l 106 991 l 279 991 l 279 150 l 783 150 l 783 0 l 106 0 "},"M":{"ha":1235,"x_min":103,"x_max":1132,"o":"m 103 0 l 103 991 l 347 991 l 621 215 l 623 215 l 890 991 l 1132 991 l 1132 0 l 966 0 l 966 765 l 964 765 l 689 0 l 546 0 l 271 765 l 268 765 l 268 0 l 103 0 "},"N":{"ha":1003,"x_min":98,"x_max":903,"o":"m 98 0 l 98 991 l 282 991 l 734 261 l 737 261 l 737 991 l 903 991 l 903 0 l 720 0 l 268 729 l 264 729 l 264 0 l 98 0 "},"O":{"ha":1055,"x_min":53,"x_max":1003,"o":"m 528 1015 l 528 1015 q 878 863 753 1013 q 1003 496 1002 715 q 878 130 1002 278 q 528 -24 753 -20 q 179 130 304 -20 q 53 496 53 278 q 179 863 53 715 q 528 1015 304 1013 m 528 873 l 528 873 q 298 757 371 871 q 227 496 225 646 q 298 236 225 349 q 528 118 371 121 q 667 151 608 118 q 758 236 724 183 q 829 496 829 349 q 758 757 829 646 q 528 873 688 871 "},"P":{"ha":926,"x_min":106,"x_max":880,"o":"m 279 850 l 279 522 l 533 522 q 594 532 562 522 q 650 558 625 541 q 692 610 676 576 q 707 686 707 640 q 657 818 705 782 q 603 844 635 836 q 536 850 572 850 l 279 850 m 106 0 l 106 991 l 543 991 q 717 962 648 990 q 819 884 783 932 q 869 786 855 839 q 880 685 880 733 q 869 587 880 639 q 819 488 855 534 q 717 412 783 440 q 543 380 648 382 l 279 380 l 279 0 l 106 0 "},"Q":{"ha":1055,"x_min":53,"x_max":1003,"o":"m 639 142 l 539 229 l 622 325 l 622 325 l 743 220 l 743 220 q 829 496 831 339 q 758 757 829 646 q 528 873 688 871 q 298 757 371 871 q 227 496 225 646 q 298 236 225 349 q 528 118 371 121 q 639 142 585 118 m 863 115 l 990 4 l 905 -90 l 905 -90 l 761 36 l 761 36 q 528 -24 647 -24 q 179 130 304 -20 q 53 496 53 278 q 179 863 53 715 q 528 1015 304 1013 q 878 863 753 1013 q 1003 496 1002 715 q 970 290 1003 391 q 863 115 936 189 "},"R":{"ha":978,"x_min":106,"x_max":945,"o":"m 279 850 l 279 541 l 564 541 q 733 699 732 541 q 721 778 733 747 q 682 822 707 807 q 628 844 660 839 q 561 850 597 850 l 279 850 m 106 0 l 106 991 l 579 991 q 907 724 905 987 q 888 608 907 654 q 839 532 868 561 q 785 492 811 505 q 743 473 757 477 l 743 471 q 793 458 766 469 q 840 422 819 447 q 878 359 864 400 q 890 261 890 321 q 904 103 890 174 q 945 0 917 33 l 758 0 q 736 72 741 35 q 732 146 730 110 q 694 346 733 282 q 534 408 652 408 l 279 408 l 279 0 l 106 0 "},"S":{"ha":900,"x_min":46,"x_max":854,"o":"m 46 330 l 220 330 q 294 168 221 216 q 471 118 364 117 q 633 165 585 119 q 680 268 680 210 q 656 353 679 325 q 599 390 632 380 q 302 472 501 424 q 130 578 178 510 q 83 724 82 644 q 199 946 86 873 q 446 1015 307 1015 q 715 936 607 1015 q 826 699 823 855 l 652 699 q 587 835 646 794 q 439 873 530 873 q 378 868 410 873 q 319 847 347 863 q 275 808 292 833 q 257 745 257 782 q 290 663 257 693 q 375 616 322 632 q 661 541 492 587 q 807 439 760 509 q 854 288 854 368 q 732 49 851 122 q 460 -24 614 -24 q 171 62 286 -24 q 46 330 54 147 "},"T":{"ha":823,"x_min":11,"x_max":814,"o":"m 11 842 l 11 991 l 814 991 l 814 842 l 498 842 l 498 0 l 325 0 l 325 842 l 11 842 "},"U":{"ha":1003,"x_min":94,"x_max":908,"o":"m 94 357 l 94 991 l 268 991 l 268 414 q 273 314 268 364 q 301 221 279 264 q 371 153 323 179 q 501 126 418 126 q 633 153 586 126 q 703 221 680 179 q 730 314 725 264 q 734 414 734 364 l 734 991 l 908 991 l 908 357 q 797 72 907 168 q 501 -24 688 -24 q 207 72 315 -24 q 94 357 96 168 "},"V":{"ha":848,"x_min":-7,"x_max":855,"o":"m 323 0 l -7 991 l 174 991 l 422 207 l 425 207 l 679 991 l 855 991 l 517 0 l 323 0 "},"W":{"ha":1311,"x_min":8,"x_max":1303,"o":"m 269 0 l 8 991 l 184 991 l 364 233 l 367 233 l 567 991 l 745 991 l 939 233 l 941 233 l 1126 991 l 1303 991 l 1029 0 l 852 0 l 654 758 l 651 758 l 448 0 l 269 0 "},"X":{"ha":900,"x_min":-4,"x_max":904,"o":"m 347 514 l 20 991 l 227 991 l 452 642 l 452 642 l 686 991 l 880 991 l 553 514 l 904 0 l 693 0 l 446 379 l 446 379 l 195 0 l -4 0 l 347 514 "},"Y":{"ha":900,"x_min":-8,"x_max":908,"o":"m 364 0 l 364 389 l -8 991 l 193 991 l 456 547 l 456 547 l 714 991 l 908 991 l 538 389 l 538 0 l 364 0 "},"Z":{"ha":875,"x_min":32,"x_max":844,"o":"m 77 842 l 77 991 l 831 991 l 831 860 l 253 150 l 844 150 l 844 0 l 32 0 l 32 142 l 610 842 l 77 842 "},"[":{"ha":411,"x_min":100,"x_max":410,"o":"m 100 -265 l 100 1015 l 410 1015 l 410 890 l 250 890 l 250 -140 l 410 -140 l 410 -265 l 100 -265 "},"\\":{"ha":489,"x_min":-31,"x_max":519,"o":"m 121 1015 l 519 -24 l 368 -24 l -31 1015 l 121 1015 "},"]":{"ha":411,"x_min":1,"x_max":311,"o":"m 311 1015 l 311 -265 l 1 -265 l 1 -140 l 161 -140 l 161 890 l 1 890 l 1 1015 l 311 1015 "},"^":{"ha":833,"x_min":117,"x_max":717,"o":"m 258 465 l 117 465 l 367 972 l 467 972 l 717 465 l 575 465 l 416 808 l 416 808 l 258 465 "},"_":{"ha":694,"x_min":0,"x_max":694,"o":"m 694 -174 l 0 -174 l 0 -104 l 694 -104 l 694 -174 "},"‘":{"ha":386,"x_min":107,"x_max":281,"o":"m 281 991 l 281 911 q 196 787 196 879 l 281 787 l 281 600 l 107 600 l 107 787 q 158 920 107 867 q 281 991 208 970 l 281 991 "},"a":{"ha":772,"x_min":45,"x_max":761,"o":"m 526 359 l 526 359 q 439 332 490 339 q 332 317 386 325 q 243 285 281 310 q 203 197 203 258 q 256 126 204 146 q 349 106 302 104 q 407 114 376 106 q 464 138 436 122 q 510 179 492 154 q 526 241 526 204 l 526 359 m 685 529 l 685 160 q 722 106 684 104 q 761 109 736 106 l 761 -1 q 661 -20 714 -18 q 582 0 614 -20 q 539 68 550 21 l 539 68 q 425 3 492 24 q 290 -20 357 -20 q 119 33 192 -20 q 45 191 46 86 q 69 301 45 258 q 134 366 93 343 q 222 400 174 387 q 321 414 271 410 q 404 428 366 422 q 472 439 443 432 q 536 515 534 452 q 486 596 534 576 q 387 612 439 614 q 279 586 319 612 q 229 498 236 557 l 71 498 q 106 616 77 570 q 180 689 135 663 q 397 737 275 739 q 594 692 509 737 q 685 529 682 643 "},"b":{"ha":848,"x_min":87,"x_max":799,"o":"m 640 358 l 640 358 q 590 534 640 460 q 441 612 541 611 q 292 543 342 611 q 240 358 240 475 q 294 179 240 249 q 441 106 346 107 q 596 186 549 107 q 631 268 621 222 q 640 358 640 313 m 87 0 l 87 991 l 245 991 l 245 625 l 249 625 q 343 708 283 677 q 463 737 401 737 q 717 627 633 734 q 799 355 799 518 q 725 97 799 207 q 489 -20 648 -17 q 347 5 414 -20 q 240 98 278 29 l 237 98 l 237 0 l 87 0 "},"c":{"ha":772,"x_min":49,"x_max":726,"o":"m 726 477 l 568 477 q 404 612 543 611 q 340 604 375 612 q 277 565 307 594 q 228 486 248 538 q 207 351 207 435 q 252 184 207 258 q 397 106 296 107 q 568 269 541 109 l 726 269 q 397 -20 679 -17 q 140 87 228 -17 q 49 351 49 191 q 139 627 49 518 q 403 737 227 736 q 622 675 532 737 q 726 477 713 611 "},"d":{"ha":848,"x_min":49,"x_max":760,"o":"m 207 351 l 207 351 q 256 183 207 256 q 406 106 304 107 q 561 187 511 107 q 607 359 607 262 q 408 612 603 608 q 253 532 300 610 q 207 351 205 453 m 760 991 l 760 0 l 610 0 l 610 97 l 607 97 q 515 9 575 37 q 385 -20 456 -20 q 134 93 216 -17 q 49 364 49 200 q 146 648 52 558 q 359 737 239 737 q 496 711 431 737 q 599 625 561 685 l 602 625 l 602 991 l 760 991 "},"e":{"ha":772,"x_min":49,"x_max":753,"o":"m 734 318 l 207 318 q 254 171 207 232 q 400 106 302 107 q 575 225 536 106 l 725 225 q 610 45 697 109 q 400 -20 521 -18 q 140 87 231 -17 q 49 358 49 191 q 143 625 49 517 q 396 737 235 734 q 661 610 570 734 q 734 318 753 488 m 207 422 l 576 422 q 525 555 572 500 q 396 612 477 611 q 262 558 314 611 q 207 422 212 505 "},"f":{"ha":437,"x_min":12,"x_max":440,"o":"m 12 600 l 12 718 l 130 718 l 130 778 q 149 890 130 847 q 193 954 165 932 q 257 985 221 977 q 329 991 292 991 q 440 982 404 991 l 440 859 q 367 867 412 867 q 313 852 335 867 q 289 791 289 838 l 289 718 l 424 718 l 424 600 l 289 600 l 289 0 l 130 0 l 130 600 l 12 600 "},"g":{"ha":823,"x_min":47,"x_max":747,"o":"m 396 125 l 396 125 q 546 204 501 126 q 589 375 589 279 q 545 542 589 472 q 396 612 500 611 q 250 533 293 610 q 207 362 205 457 q 253 200 207 271 q 396 125 298 126 m 747 718 l 747 37 q 395 -285 743 -285 q 186 -235 281 -285 q 74 -61 89 -184 l 232 -61 q 296 -147 249 -126 q 404 -167 343 -167 q 589 17 590 -165 l 589 126 l 586 126 q 371 0 513 1 q 125 113 201 1 q 49 378 47 220 q 136 631 49 528 q 374 737 221 734 q 500 709 443 737 q 586 619 555 680 l 589 619 l 589 718 l 747 718 "},"h":{"ha":797,"x_min":83,"x_max":714,"o":"m 83 0 l 83 991 l 241 991 l 241 623 l 244 623 q 332 707 275 675 q 460 737 389 737 q 714 493 708 736 l 714 0 l 555 0 l 555 452 q 415 612 553 614 q 290 558 335 611 q 241 424 241 504 l 241 0 l 83 0 "},"i":{"ha":335,"x_min":87,"x_max":245,"o":"m 87 0 l 87 718 l 245 718 l 245 0 l 87 0 m 87 842 l 87 991 l 245 991 l 245 842 l 87 842 "},"j":{"ha":335,"x_min":-31,"x_max":250,"o":"m 87 -54 l 87 718 l 245 718 l 245 -61 q 40 -285 250 -282 q -31 -279 -3 -283 l -31 -154 q 24 -159 1 -158 q 78 -132 66 -159 q 87 -54 87 -107 m 87 842 l 87 991 l 245 991 l 245 842 l 87 842 "},"k":{"ha":746,"x_min":87,"x_max":753,"o":"m 87 0 l 87 991 l 245 991 l 245 428 l 245 428 l 532 718 l 726 718 l 452 454 l 753 0 l 559 0 l 340 349 l 340 349 l 245 257 l 245 0 l 87 0 "},"l":{"ha":335,"x_min":87,"x_max":245,"o":"m 87 0 l 87 991 l 245 991 l 245 0 l 87 0 "},"m":{"ha":1208,"x_min":83,"x_max":1125,"o":"m 83 0 l 83 718 l 233 718 l 233 618 l 237 618 q 323 705 272 673 q 458 737 375 737 q 582 709 526 737 q 660 618 636 680 l 660 618 q 754 707 699 675 q 884 737 808 737 q 1125 496 1121 743 l 1125 0 l 966 0 l 966 419 q 949 559 968 507 q 909 600 936 585 q 836 612 883 612 q 684 420 680 610 l 684 0 l 525 0 l 525 461 q 498 575 525 536 q 399 612 471 612 q 290 565 336 612 q 241 427 243 517 l 241 0 l 83 0 "},"n":{"ha":797,"x_min":83,"x_max":714,"o":"m 83 0 l 83 718 l 233 718 l 233 612 l 236 610 q 460 737 313 734 q 714 493 708 736 l 714 0 l 555 0 l 555 452 q 415 612 553 614 q 290 558 335 611 q 241 424 241 504 l 241 0 l 83 0 "},"o":{"ha":823,"x_min":50,"x_max":775,"o":"m 412 106 l 412 106 q 568 187 518 107 q 616 359 616 262 q 568 533 616 458 q 412 612 518 610 q 258 533 307 610 q 208 359 208 458 q 258 187 208 262 q 412 106 307 107 m 412 -20 l 412 -20 q 146 89 239 -18 q 50 359 50 192 q 146 632 50 528 q 412 737 239 736 q 682 632 587 736 q 775 359 775 528 q 682 89 775 192 q 412 -20 587 -18 "},"p":{"ha":848,"x_min":87,"x_max":799,"o":"m 640 358 l 640 358 q 590 534 640 460 q 441 612 541 611 q 292 543 342 611 q 240 358 240 475 q 294 179 240 249 q 441 106 346 107 q 596 186 549 107 q 631 268 621 222 q 640 358 640 313 m 87 -265 l 87 718 l 237 718 l 237 621 l 240 621 q 335 711 275 684 q 463 737 393 737 q 717 627 633 734 q 799 355 799 518 q 725 97 799 207 q 489 -20 648 -17 q 354 8 418 -20 q 249 93 288 35 l 245 93 l 245 -265 l 87 -265 "},"q":{"ha":848,"x_min":49,"x_max":760,"o":"m 207 358 l 207 358 q 253 186 205 261 q 406 106 298 107 q 558 176 510 107 q 607 358 607 244 q 406 612 606 607 q 258 534 309 611 q 207 358 207 460 m 760 718 l 760 -265 l 602 -265 l 602 93 l 599 93 q 496 8 559 35 q 358 -20 429 -20 q 125 97 200 -17 q 49 355 49 207 q 134 627 49 518 q 385 737 216 734 q 514 711 454 737 q 607 621 574 684 l 610 621 l 610 718 l 760 718 "},"r":{"ha":489,"x_min":83,"x_max":504,"o":"m 83 0 l 83 718 l 232 718 l 232 579 l 235 579 q 311 689 252 640 q 444 737 370 736 q 504 733 492 736 l 504 581 q 471 586 488 583 q 436 587 454 587 q 298 525 353 587 q 241 342 243 461 l 241 0 l 83 0 "},"s":{"ha":721,"x_min":45,"x_max":684,"o":"m 45 231 l 203 231 q 256 135 211 163 q 366 106 301 104 q 471 123 416 104 q 525 200 524 142 q 505 252 525 231 q 452 282 485 269 q 290 319 382 304 q 207 343 248 329 q 132 380 165 358 q 81 441 100 406 q 60 532 60 479 q 89 632 60 593 q 161 694 117 672 q 258 729 205 720 q 359 737 311 737 q 558 688 473 737 q 660 517 643 636 l 494 517 q 443 594 484 572 q 349 612 403 612 q 268 600 311 612 q 218 539 220 585 q 239 493 218 510 q 292 463 258 475 q 452 424 359 441 q 538 401 496 415 q 611 362 579 387 q 664 304 644 340 q 684 214 684 268 q 579 35 680 87 q 362 -20 482 -20 q 138 43 225 -20 q 45 231 50 104 "},"t":{"ha":463,"x_min":11,"x_max":432,"o":"m 11 600 l 11 718 l 130 718 l 130 933 l 289 933 l 289 718 l 432 718 l 432 600 l 289 600 l 289 216 q 301 143 288 168 q 366 118 315 118 q 432 123 399 117 l 432 1 q 329 -7 380 -5 q 170 40 210 -5 q 130 176 129 86 l 130 600 l 11 600 "},"u":{"ha":797,"x_min":79,"x_max":714,"o":"m 714 718 l 714 0 l 558 0 l 558 100 l 555 100 q 469 14 525 46 q 351 -20 414 -18 q 83 262 79 -20 l 83 718 l 241 718 l 241 278 q 279 146 241 184 q 379 106 315 106 q 518 163 477 107 q 555 301 555 216 l 555 718 l 714 718 "},"v":{"ha":721,"x_min":12,"x_max":708,"o":"m 273 0 l 12 718 l 184 718 l 367 167 l 370 167 l 545 718 l 708 718 l 452 0 l 273 0 "},"w":{"ha":1080,"x_min":18,"x_max":1063,"o":"m 240 0 l 18 718 l 186 718 l 326 182 l 329 182 l 464 718 l 623 718 l 753 182 l 755 182 l 901 718 l 1063 718 l 838 0 l 675 0 l 542 533 l 539 533 l 407 0 l 240 0 "},"x":{"ha":746,"x_min":5,"x_max":741,"o":"m 5 0 l 277 378 l 28 718 l 220 718 l 370 497 l 370 497 l 526 718 l 709 718 l 465 386 l 741 0 l 550 0 l 368 265 l 368 265 l 192 0 l 5 0 "},"y":{"ha":721,"x_min":4,"x_max":715,"o":"m 277 3 l 4 718 l 178 718 l 366 182 l 368 182 l 550 718 l 715 718 l 436 -39 q 400 -130 418 -86 q 353 -210 379 -174 q 286 -262 326 -243 q 182 -285 244 -283 q 72 -277 126 -285 l 72 -143 q 147 -153 110 -151 q 225 -125 201 -153 q 258 -53 245 -98 l 277 3 "},"z":{"ha":694,"x_min":31,"x_max":663,"o":"m 58 593 l 58 718 l 642 718 l 642 607 l 231 125 l 663 125 l 663 0 l 31 0 l 31 111 l 428 593 l 58 593 "},"{":{"ha":411,"x_min":-5,"x_max":429,"o":"m -5 313 l -5 437 q 75 458 29 436 q 125 539 122 481 l 125 825 q 146 912 125 875 q 193 970 165 949 q 302 1015 253 1015 l 429 1015 l 429 890 l 353 890 q 289 859 302 889 q 275 793 273 826 l 275 522 q 260 454 275 481 q 220 410 243 427 q 130 376 170 379 l 130 374 q 172 370 149 374 q 220 347 196 364 q 260 301 243 332 q 275 220 275 271 l 275 -43 q 289 -107 273 -77 q 353 -140 302 -139 l 429 -140 l 429 -265 l 302 -265 q 252 -253 282 -265 q 193 -218 221 -240 q 146 -158 165 -196 q 125 -75 125 -122 l 125 200 q 111 257 125 235 q 75 290 96 278 q -5 313 29 313 "},"|":{"ha":309,"x_min":83,"x_max":225,"o":"m 83 -297 l 83 1092 l 225 1092 l 225 -297 l 83 -297 "},"}":{"ha":411,"x_min":-18,"x_max":416,"o":"m 416 437 l 416 313 q 338 293 383 313 q 286 211 289 271 l 286 -75 q 268 -158 286 -122 q 221 -218 249 -196 q 109 -265 160 -265 l -18 -265 l -18 -140 l 58 -140 q 125 -107 111 -139 q 136 -43 136 -77 l 136 228 q 154 298 139 272 q 193 342 170 325 q 281 374 243 371 l 281 376 q 240 385 264 379 q 193 406 216 391 q 154 453 170 422 q 136 530 139 482 l 136 793 q 125 859 136 826 q 101 882 118 873 q 58 890 85 890 l -18 890 l -18 1015 l 109 1015 q 221 970 160 1015 q 268 912 249 949 q 286 825 286 875 l 286 550 q 302 496 286 517 q 338 461 317 473 q 416 437 383 436 "},"~":{"ha":833,"x_min":96,"x_max":737,"o":"m 688 469 l 737 353 q 707 311 724 332 q 668 272 689 290 q 564 233 628 233 q 492 248 526 233 q 422 279 457 260 q 350 314 389 298 q 262 328 311 328 q 191 297 216 326 q 146 233 163 268 l 146 233 l 96 350 q 160 432 118 396 q 269 469 201 468 q 346 457 306 469 q 424 425 383 444 q 501 391 464 407 q 565 375 538 375 q 636 407 607 376 q 688 469 665 436 l 688 469 "},"¡":{"ha":386,"x_min":100,"x_max":286,"o":"m 281 29 l 281 -254 l 107 -254 l 107 29 l 153 461 l 235 461 l 281 29 m 286 737 l 286 564 l 100 564 l 100 737 l 286 737 "},"¢":{"ha":772,"x_min":52,"x_max":733,"o":"m 372 106 l 372 612 q 245 522 282 600 q 210 351 210 443 q 249 195 210 265 q 372 106 286 123 m 372 -144 l 372 -20 q 138 92 221 -17 q 52 351 52 197 q 142 633 53 529 q 372 737 231 736 l 372 863 l 432 863 l 432 737 q 635 669 551 737 q 728 477 717 600 l 570 477 q 526 575 562 539 q 432 612 489 611 l 432 106 q 575 269 558 129 l 733 269 q 636 60 711 136 q 432 -20 561 -18 l 432 -144 l 372 -144 "},"£":{"ha":772,"x_min":43,"x_max":770,"o":"m 43 443 l 43 533 l 130 533 q 65 729 65 619 q 168 939 68 863 q 390 1015 265 1014 q 739 672 724 1015 l 581 672 q 536 823 578 764 q 393 883 494 882 q 285 842 329 883 q 239 721 240 800 q 261 623 239 672 q 302 533 281 575 l 507 533 l 507 443 l 336 443 q 358 350 358 404 q 318 220 357 275 q 218 122 277 164 l 221 119 q 285 146 252 134 q 349 157 315 157 q 411 150 385 157 q 461 134 439 143 q 564 109 504 110 q 699 161 640 109 l 699 161 l 770 54 q 547 -24 673 -26 q 481 -16 514 -22 q 410 -3 446 -8 q 340 17 376 8 q 264 25 302 25 q 191 14 228 25 q 123 -22 151 1 l 123 -22 l 50 90 q 151 189 106 127 q 200 315 199 249 q 171 443 199 387 l 43 443 "},"∕":{"ha":232,"x_min":-229,"x_max":461,"o":"m -229 -33 l 353 1006 l 461 1006 l -119 -33 l -229 -33 "},"¥":{"ha":772,"x_min":-7,"x_max":779,"o":"m 307 0 l 307 229 l 117 229 l 117 319 l 307 319 l 307 414 l 117 414 l 117 504 l 253 504 l -7 991 l 170 991 l 386 547 l 386 547 l 607 991 l 779 991 l 518 504 l 656 504 l 656 414 l 465 414 l 465 319 l 656 319 l 656 229 l 465 229 l 465 0 l 307 0 "},"ƒ":{"ha":772,"x_min":0,"x_max":700,"o":"m 161 490 l 182 608 l 310 608 l 354 842 q 599 1015 407 1018 q 700 1008 650 1015 l 676 883 q 619 890 648 890 q 539 868 562 890 q 504 789 514 843 l 469 608 l 611 608 l 590 490 l 448 490 l 347 -39 q 267 -176 330 -119 q 110 -236 201 -235 q 0 -229 56 -236 l 21 -104 q 87 -111 54 -111 q 150 -94 125 -111 q 183 -33 175 -78 l 288 490 l 161 490 "},"§":{"ha":772,"x_min":31,"x_max":743,"o":"m 496 431 l 265 562 q 205 522 228 551 q 180 452 180 492 q 193 406 179 436 q 257 343 207 375 l 510 201 q 571 245 547 218 q 593 315 593 273 q 575 374 593 346 q 496 431 553 400 m 673 753 l 524 753 q 488 851 521 812 q 393 890 454 889 q 317 863 350 890 q 279 786 281 835 q 300 729 279 754 q 353 679 319 703 q 510 593 420 635 q 669 490 599 551 q 743 330 742 429 q 701 210 742 264 q 596 130 660 154 q 654 60 633 100 q 672 -47 672 17 q 590 -224 671 -164 q 397 -285 510 -285 q 186 -211 268 -285 q 97 0 104 -138 l 248 0 q 393 -159 256 -155 q 481 -134 446 -159 q 514 -47 513 -107 q 494 22 514 -8 q 440 75 475 52 q 275 167 368 123 q 109 275 182 211 q 31 433 32 336 q 180 640 33 585 q 121 781 121 699 q 208 954 123 893 q 395 1015 290 1015 q 593 947 515 1015 q 673 753 671 878 "},"¤":{"ha":772,"x_min":28,"x_max":745,"o":"m 106 125 l 28 203 l 107 288 q 37 485 37 367 q 56 597 37 545 q 107 685 72 650 l 28 770 l 107 848 l 107 848 l 186 771 l 186 771 q 389 835 264 833 q 579 772 509 833 l 579 772 l 660 851 l 660 851 l 745 766 l 667 686 q 715 600 699 651 q 732 488 732 547 q 665 285 730 368 l 742 203 l 665 126 l 665 126 l 586 207 l 586 207 q 387 138 510 138 q 183 205 261 138 l 183 205 l 106 125 l 106 125 m 387 279 l 387 279 q 528 343 475 281 q 582 488 581 401 q 528 632 581 574 q 389 693 473 692 q 245 633 301 692 q 187 485 189 575 q 245 340 189 397 q 387 279 302 281 "},"'":{"ha":386,"x_min":122,"x_max":264,"o":"m 122 600 l 122 991 l 264 991 l 264 600 l 122 600 "},"“":{"ha":616,"x_min":83,"x_max":533,"o":"m 257 991 l 257 911 q 172 787 172 879 l 257 787 l 257 600 l 83 600 l 83 787 q 135 920 83 867 q 257 991 184 970 l 257 991 m 533 991 l 533 911 q 448 787 448 879 l 533 787 l 533 600 l 359 600 l 359 787 q 411 920 359 867 q 533 991 461 970 l 533 991 "},"«":{"ha":643,"x_min":69,"x_max":559,"o":"m 285 129 l 69 300 l 69 456 l 285 627 l 285 627 l 285 484 l 153 378 l 285 272 l 285 129 l 285 129 m 559 129 l 345 300 l 345 456 l 559 627 l 559 627 l 559 484 l 428 378 l 559 272 l 559 129 l 559 129 "},"‹":{"ha":359,"x_min":69,"x_max":285,"o":"m 285 129 l 69 300 l 69 456 l 285 627 l 285 627 l 285 484 l 153 378 l 285 272 l 285 129 l 285 129 "},"›":{"ha":359,"x_min":75,"x_max":290,"o":"m 75 627 l 290 456 l 290 300 l 75 129 l 75 129 l 75 272 l 207 378 l 75 484 l 75 627 l 75 627 "},"":{"ha":772,"x_min":12,"x_max":684,"o":"m 525 0 l 525 718 l 684 718 l 684 0 l 525 0 m 12 600 l 12 718 l 130 718 l 130 778 q 149 890 130 847 q 193 954 165 932 q 257 985 221 977 q 329 991 292 991 q 440 982 404 991 l 440 859 q 367 867 412 867 q 313 852 335 867 q 289 791 289 838 l 289 718 l 424 718 l 424 600 l 289 600 l 289 0 l 130 0 l 130 600 l 12 600 m 525 842 l 525 991 l 684 991 l 684 842 l 525 842 "},"":{"ha":772,"x_min":12,"x_max":684,"o":"m 12 600 l 12 718 l 130 718 l 130 778 q 149 890 130 847 q 193 954 165 932 q 257 985 221 977 q 329 991 292 991 q 440 982 404 991 l 440 859 q 367 867 412 867 q 313 852 335 867 q 289 791 289 838 l 289 718 l 424 718 l 424 600 l 289 600 l 289 0 l 130 0 l 130 600 l 12 600 m 525 0 l 525 991 l 684 991 l 684 0 l 525 0 "},"–":{"ha":694,"x_min":0,"x_max":694,"o":"m 0 302 l 0 453 l 694 453 l 694 302 l 0 302 "},"†":{"ha":772,"x_min":41,"x_max":730,"o":"m 307 -222 l 307 586 l 41 586 l 41 718 l 307 718 l 307 991 l 465 991 l 465 718 l 730 718 l 730 586 l 465 586 l 465 -222 l 307 -222 "},"‡":{"ha":772,"x_min":41,"x_max":730,"o":"m 307 -222 l 307 52 l 41 52 l 41 183 l 307 183 l 307 586 l 41 586 l 41 718 l 307 718 l 307 991 l 465 991 l 465 718 l 730 718 l 730 586 l 465 586 l 465 183 l 730 183 l 730 52 l 465 52 l 465 -222 l 307 -222 "},"∙":{"ha":386,"x_min":89,"x_max":297,"o":"m 89 419 l 89 419 q 121 493 89 463 q 193 522 151 521 q 267 493 236 521 q 297 419 297 463 q 268 346 296 376 q 193 314 237 314 q 121 346 150 314 q 89 419 89 376 "},"¶":{"ha":833,"x_min":43,"x_max":726,"o":"m 342 -222 l 342 477 q 126 551 205 479 q 43 730 45 621 q 134 932 45 869 q 367 991 221 991 l 726 991 l 726 -222 l 615 -222 l 615 901 l 453 901 l 453 -222 l 342 -222 "},"•":{"ha":694,"x_min":100,"x_max":596,"o":"m 100 496 l 100 496 q 174 672 101 603 q 347 743 243 742 q 524 672 454 742 q 596 496 594 603 q 524 321 594 390 q 347 248 454 249 q 174 321 243 249 q 100 496 101 390 "},"‚":{"ha":386,"x_min":107,"x_max":281,"o":"m 107 -204 l 107 -123 q 192 0 192 -92 l 107 0 l 107 187 l 281 187 l 281 0 q 231 -130 279 -79 q 107 -204 182 -183 l 107 -204 "},"„":{"ha":616,"x_min":83,"x_max":533,"o":"m 83 -204 l 83 -123 q 168 0 168 -92 l 83 0 l 83 187 l 257 187 l 257 0 q 207 -130 256 -79 q 83 -204 158 -183 l 83 -204 m 359 -204 l 359 -123 q 444 0 444 -92 l 359 0 l 359 187 l 533 187 l 533 0 q 484 -130 532 -79 q 359 -204 435 -183 l 359 -204 "},"”":{"ha":616,"x_min":83,"x_max":533,"o":"m 83 600 l 83 680 q 168 804 168 713 l 83 804 l 83 991 l 257 991 l 257 804 q 207 673 256 725 q 83 600 158 621 l 83 600 m 359 600 l 359 680 q 444 804 444 713 l 359 804 l 359 991 l 533 991 l 533 804 q 484 673 532 725 q 359 600 435 621 l 359 600 "},"»":{"ha":643,"x_min":83,"x_max":574,"o":"m 83 627 l 298 456 l 298 300 l 83 129 l 83 129 l 83 272 l 215 378 l 83 484 l 83 627 l 83 627 m 358 627 l 574 456 l 574 300 l 358 129 l 358 129 l 358 272 l 490 378 l 358 484 l 358 627 l 358 627 "},"…":{"ha":1389,"x_min":135,"x_max":1253,"o":"m 135 0 l 135 187 l 328 187 l 328 0 l 135 0 m 597 0 l 597 187 l 790 187 l 790 0 l 597 0 m 1060 0 l 1060 187 l 1253 187 l 1253 0 l 1060 0 "},"‰":{"ha":1594,"x_min":113,"x_max":1480,"o":"m 321 991 l 321 991 q 479 918 429 990 q 528 743 528 846 q 518 664 528 704 q 484 590 509 623 q 321 515 436 517 q 224 538 262 515 q 160 590 184 557 q 114 743 113 660 q 164 918 114 846 q 321 991 214 990 m 321 908 l 321 908 q 273 892 292 908 q 248 847 256 875 q 232 739 231 790 q 248 647 231 690 q 321 599 264 600 q 395 647 378 600 q 410 739 410 690 q 408 793 410 762 q 397 847 406 821 q 321 908 380 905 m 229 -33 l 782 1006 l 883 1006 l 328 -33 l 229 -33 m 800 -20 l 800 -20 q 646 50 699 -18 q 593 214 593 115 q 643 386 593 317 q 800 457 693 456 q 958 386 908 456 q 1007 214 1007 317 q 956 50 1007 115 q 800 -20 904 -18 m 800 64 l 800 64 q 873 115 857 65 q 889 210 889 163 q 888 262 889 233 q 876 315 884 290 q 850 358 868 342 q 800 374 832 374 q 753 358 771 374 q 726 315 734 342 q 715 262 718 290 q 711 210 711 233 q 726 115 709 163 q 800 64 743 65 m 1274 -20 l 1274 -20 q 1177 3 1215 -18 q 1112 58 1137 25 q 1067 214 1065 130 q 1116 386 1067 317 q 1274 457 1166 456 q 1432 386 1382 456 q 1480 214 1480 317 q 1471 134 1480 174 q 1436 58 1461 93 q 1274 -20 1389 -17 m 1274 64 l 1274 64 q 1347 115 1331 65 q 1362 210 1362 161 q 1361 262 1362 233 q 1350 315 1358 290 q 1324 358 1341 342 q 1274 374 1305 374 q 1226 358 1244 374 q 1200 315 1208 342 q 1189 262 1192 290 q 1185 210 1185 233 q 1200 115 1183 161 q 1274 64 1217 65 "},"¿":{"ha":772,"x_min":68,"x_max":704,"o":"m 546 54 l 704 54 q 615 -184 704 -96 q 371 -278 526 -277 q 157 -204 241 -277 q 68 -4 69 -135 q 107 142 68 92 q 146 189 125 168 q 191 227 167 208 q 240 271 218 249 q 279 317 262 292 q 313 461 311 366 l 463 461 q 437 285 463 345 q 354 179 411 224 q 314 144 333 161 q 277 107 293 127 q 253 64 261 89 q 241 1 241 37 q 257 -65 241 -37 q 292 -111 271 -92 q 378 -146 338 -146 q 505 -89 464 -144 q 546 54 546 -35 m 292 737 l 477 737 l 477 564 l 292 564 l 292 737 "},"`":{"ha":335,"x_min":-40,"x_max":272,"o":"m -40 1015 l 146 1015 l 272 817 l 157 817 l -40 1015 "},"´":{"ha":335,"x_min":62,"x_max":375,"o":"m 62 817 l 187 1015 l 375 1015 l 178 817 l 62 817 "},"ˆ":{"ha":335,"x_min":-58,"x_max":395,"o":"m 167 941 l 69 817 l -58 817 l 90 1015 l 244 1015 l 395 817 l 265 817 l 167 941 l 167 941 "},"˜":{"ha":335,"x_min":-78,"x_max":412,"o":"m 335 991 l 412 991 q 407 961 411 975 q 397 930 403 945 q 367 879 385 901 q 258 832 332 832 q 210 842 235 832 q 155 859 183 848 q 60 883 100 882 q 20 865 36 883 q 1 826 1 848 l -78 826 q -32 932 -69 883 q 66 983 4 982 q 129 977 100 983 q 179 957 157 968 q 225 940 204 947 q 265 930 245 930 q 335 991 323 932 "},"¯":{"ha":335,"x_min":-32,"x_max":368,"o":"m 368 860 l -32 860 l -32 950 l 368 950 l 368 860 "},"˘":{"ha":335,"x_min":-57,"x_max":391,"o":"m -57 1015 l 24 1015 q 78 935 37 960 q 172 909 117 909 q 313 1015 285 909 l 391 1015 q 161 819 362 819 q -57 1015 -35 821 "},"˙":{"ha":335,"x_min":89,"x_max":248,"o":"m 248 832 l 89 832 l 89 982 l 248 982 l 248 832 "},"¨":{"ha":335,"x_min":-31,"x_max":367,"o":"m 208 982 l 367 982 l 367 832 l 208 832 l 208 982 m 127 832 l -31 832 l -31 982 l 127 982 l 127 832 "},"˚":{"ha":335,"x_min":25,"x_max":311,"o":"m 168 762 l 168 762 q 68 806 110 762 q 25 905 25 847 q 68 1007 25 965 q 168 1048 110 1047 q 269 1007 228 1047 q 311 905 310 965 q 269 806 310 847 q 168 762 228 762 m 83 905 l 83 905 q 110 847 83 871 q 168 821 134 821 q 228 847 204 821 q 253 905 252 871 q 228 965 252 941 q 168 990 204 989 q 110 965 134 989 q 83 905 83 941 "},"¸":{"ha":335,"x_min":12,"x_max":323,"o":"m 12 -278 l 37 -222 q 127 -244 82 -241 q 186 -233 160 -244 q 212 -187 211 -222 q 193 -147 211 -159 q 149 -135 174 -135 q 94 -149 121 -135 l 64 -122 l 155 0 l 222 0 l 160 -81 l 160 -83 q 205 -79 175 -78 q 286 -103 249 -78 q 323 -182 322 -127 q 271 -279 322 -252 q 155 -307 220 -307 q 83 -298 122 -307 q 12 -278 41 -292 "},"˛":{"ha":335,"x_min":66,"x_max":353,"o":"m 225 4 l 300 4 q 197 -96 225 -56 q 170 -172 168 -138 q 187 -215 170 -200 q 224 -233 203 -232 q 262 -222 244 -233 q 297 -187 279 -212 l 353 -199 q 293 -279 335 -257 q 207 -302 252 -302 q 176 -298 199 -302 q 127 -283 153 -294 q 86 -245 104 -271 q 66 -178 66 -221 q 71 -151 66 -168 q 89 -111 75 -135 q 136 -58 103 -87 q 225 4 167 -29 "},"ˇ":{"ha":335,"x_min":-58,"x_max":395,"o":"m 395 1015 l 244 817 l 90 817 l -58 1015 l 69 1015 l 167 892 l 167 892 l 265 1015 l 395 1015 "},"—":{"ha":1389,"x_min":180,"x_max":1208,"o":"m 180 302 l 180 453 l 1208 453 l 1208 302 l 180 302 "},"Æ":{"ha":1337,"x_min":-9,"x_max":1292,"o":"m 585 842 l 367 386 l 635 386 l 635 842 l 585 842 m -9 0 l 484 991 l 1283 991 l 1283 842 l 800 842 l 800 582 l 1253 582 l 1253 440 l 800 440 l 800 150 l 1292 150 l 1292 0 l 635 0 l 635 254 l 302 254 l 183 0 l -9 0 "},"ª":{"ha":528,"x_min":22,"x_max":505,"o":"m 339 682 l 339 743 q 286 728 318 733 q 222 717 254 722 q 168 699 191 713 q 143 654 143 685 q 167 618 143 627 q 221 608 189 608 q 301 623 264 608 q 339 682 338 637 m 460 863 l 460 652 q 484 622 457 622 q 505 623 492 622 l 505 529 q 440 518 473 518 q 383 533 404 518 q 354 586 361 550 l 354 586 q 285 538 333 557 q 192 518 236 518 q 75 551 125 518 q 22 647 24 585 q 40 713 22 689 q 83 751 56 737 q 144 774 111 765 q 178 782 161 778 q 210 786 193 785 q 302 804 265 795 q 339 839 338 814 q 332 875 339 863 q 311 893 323 888 q 256 901 285 903 q 189 890 215 901 q 158 843 164 878 l 40 843 q 66 917 46 888 q 118 961 86 946 q 262 991 182 991 q 399 962 339 991 q 460 863 458 932 "},"Ł":{"ha":797,"x_min":0,"x_max":783,"o":"m 106 440 l 106 991 l 279 991 l 279 567 l 279 567 l 557 764 l 557 764 l 557 635 l 279 437 l 279 150 l 783 150 l 783 0 l 106 0 l 106 315 l 106 315 l 0 240 l 0 240 l 0 366 l 106 440 "},"Ø":{"ha":1055,"x_min":53,"x_max":1003,"o":"m 277 272 l 733 786 q 528 873 665 871 q 298 757 371 871 q 227 496 225 646 q 277 272 225 372 l 277 272 m 778 720 l 322 205 q 528 118 396 119 q 667 151 608 118 q 758 236 724 183 q 829 496 829 349 q 778 720 829 618 l 778 720 m 940 1019 l 1000 969 l 890 846 q 1003 496 1002 703 q 878 130 1002 278 q 528 -24 753 -20 q 220 90 336 -21 l 220 90 l 114 -28 l 114 -28 l 56 22 l 165 147 q 53 496 54 289 q 179 863 53 715 q 528 1015 304 1013 q 836 903 720 1013 l 836 903 l 940 1019 l 940 1019 "},"Œ":{"ha":1518,"x_min":57,"x_max":1461,"o":"m 766 304 l 766 673 q 708 812 766 754 q 529 873 650 872 q 301 754 374 869 q 231 494 229 640 q 301 237 229 350 q 529 118 374 121 q 705 182 644 119 q 766 304 766 240 m 932 842 l 932 582 l 1409 582 l 1409 440 l 932 440 l 932 150 l 1461 150 l 1461 0 l 774 0 l 774 89 l 774 89 q 513 -24 668 -24 q 175 132 290 -20 q 57 492 57 279 q 179 859 57 708 q 524 1015 300 1011 q 774 912 672 1018 l 774 912 l 774 991 l 1451 991 l 1451 842 l 932 842 "},"º":{"ha":528,"x_min":21,"x_max":515,"o":"m 395 754 l 395 754 q 364 854 395 810 q 268 901 333 900 q 174 854 204 900 q 142 754 142 810 q 174 656 142 700 q 268 608 204 610 q 364 656 333 610 q 395 754 393 700 m 515 754 l 515 754 q 453 583 515 647 q 268 518 390 518 q 85 583 147 518 q 21 754 21 647 q 85 926 21 863 q 268 991 147 990 q 453 926 390 990 q 515 754 515 863 "},"æ":{"ha":1235,"x_min":45,"x_max":1210,"o":"m 676 422 l 1039 422 q 993 561 1040 510 q 857 612 945 612 q 728 557 774 611 q 676 422 682 503 m 526 357 l 526 357 q 446 330 500 336 q 333 317 391 326 q 243 285 281 310 q 203 197 203 258 q 250 125 204 144 q 347 106 294 106 q 471 143 416 106 q 526 250 525 179 l 526 357 m 1034 227 l 1192 227 q 867 -20 1118 -16 q 717 11 786 -20 q 603 113 646 41 l 603 113 q 476 12 555 45 q 304 -20 397 -20 q 121 33 195 -20 q 45 191 46 86 q 69 301 45 258 q 134 366 93 343 q 222 400 174 387 q 321 414 271 410 q 403 428 366 422 q 468 439 440 432 q 528 515 526 452 q 484 596 526 576 q 387 612 439 614 q 279 586 319 612 q 229 498 236 557 l 71 498 q 179 689 85 636 q 393 737 273 739 q 529 721 464 739 q 636 640 593 701 l 636 640 q 739 715 677 693 q 864 737 799 737 q 1129 618 1047 736 q 1197 318 1210 501 l 676 318 q 721 172 676 233 q 864 106 766 107 q 1034 227 993 107 "},"ı":{"ha":335,"x_min":87,"x_max":245,"o":"m 245 0 l 87 0 l 87 718 l 245 718 l 245 0 "},"ł":{"ha":335,"x_min":-7,"x_max":340,"o":"m 87 443 l 87 443 l -7 370 l -7 370 l -7 468 l 87 542 l 87 991 l 245 991 l 245 665 l 245 665 l 340 741 l 340 741 l 340 640 l 245 565 l 245 0 l 87 0 l 87 443 "},"ø":{"ha":823,"x_min":45,"x_max":781,"o":"m 585 503 l 275 164 q 412 106 325 107 q 568 187 518 107 q 616 359 616 262 q 585 503 616 436 l 585 503 m 89 -39 l 45 0 l 135 100 q 50 359 50 201 q 146 632 50 528 q 412 737 239 736 q 648 661 559 736 l 648 661 l 736 757 l 736 757 l 781 718 l 690 619 q 775 359 775 515 q 682 89 775 192 q 412 -20 587 -18 q 178 58 268 -18 l 178 58 l 89 -39 l 89 -39 m 240 215 l 550 554 q 412 612 500 611 q 258 533 307 610 q 208 359 208 458 q 240 215 208 282 l 240 215 "},"œ":{"ha":1259,"x_min":49,"x_max":1227,"o":"m 1226 318 l 701 318 q 749 168 703 229 q 889 106 794 107 q 1000 138 951 106 q 1060 228 1047 167 l 1218 228 q 892 -20 1149 -18 q 743 9 810 -20 q 635 113 675 37 l 635 113 q 529 9 594 39 q 379 -20 461 -20 q 132 94 212 -17 q 49 361 49 203 q 139 628 49 519 q 391 737 227 734 q 536 713 468 737 q 643 616 604 685 l 643 616 q 754 709 686 680 q 895 737 821 737 q 1156 612 1079 734 q 1226 318 1227 493 m 882 612 l 882 612 q 754 555 802 611 q 701 422 705 501 l 1068 422 q 882 612 1061 608 m 390 612 l 390 612 q 249 532 292 610 q 207 364 205 457 q 216 272 207 317 q 244 189 225 227 q 390 106 285 107 q 482 129 447 106 q 538 189 517 151 q 567 272 558 227 q 574 364 574 317 q 533 532 574 457 q 477 590 513 568 q 390 612 443 612 "},"ß":{"ha":797,"x_min":87,"x_max":732,"o":"m 87 0 l 87 726 q 174 939 89 863 q 391 1015 258 1015 q 596 951 509 1015 q 688 765 685 886 q 654 637 688 696 q 546 555 619 581 l 546 553 q 684 472 635 541 q 732 315 732 403 q 647 77 730 170 q 414 -20 562 -18 q 336 -16 376 -20 l 336 110 q 390 106 355 106 q 489 127 453 106 q 545 179 526 147 q 570 250 564 211 q 574 322 574 286 q 554 407 574 374 q 497 458 533 440 q 422 488 465 479 q 338 493 380 493 l 338 597 q 416 607 380 597 q 475 633 453 615 q 529 750 528 669 q 389 890 529 890 q 342 883 366 890 q 294 855 317 876 q 261 802 273 838 q 245 709 245 766 l 245 0 l 87 0 "},"÷":{"ha":833,"x_min":66,"x_max":766,"o":"m 766 281 l 66 281 l 66 422 l 766 422 l 766 281 m 418 538 l 418 538 q 349 568 378 538 q 317 637 317 597 q 347 708 317 680 q 416 737 376 736 q 488 708 460 736 q 517 637 515 680 q 488 570 515 599 q 418 538 460 538 m 418 -35 l 418 -35 q 349 -4 378 -33 q 317 65 317 25 q 347 136 317 109 q 416 165 376 164 q 488 136 460 164 q 517 65 515 109 q 488 -3 515 26 q 418 -35 460 -33 "},"¾":{"ha":1158,"x_min":22,"x_max":1115,"o":"m 1050 135 l 1050 0 l 929 0 l 929 135 l 659 135 l 659 248 l 912 594 l 1050 594 l 1050 239 l 1115 239 l 1115 135 l 1050 135 m 929 239 l 929 458 l 926 458 l 764 239 l 929 239 m 272 -33 l 854 1006 l 962 1006 l 382 -33 l 272 -33 m 203 659 l 203 739 q 300 757 258 736 q 343 825 342 775 q 313 879 342 863 q 248 895 282 895 q 174 865 201 893 q 146 789 146 836 l 35 789 q 249 991 50 989 q 390 957 329 991 q 454 831 453 920 q 366 705 454 741 l 366 703 q 479 557 476 677 q 412 416 477 465 q 250 367 349 367 q 22 582 25 370 l 134 582 q 163 500 132 533 q 250 464 192 464 q 335 492 301 464 q 368 562 367 517 q 317 646 367 628 q 264 659 293 657 q 203 659 235 661 "},"¼":{"ha":1158,"x_min":52,"x_max":1064,"o":"m 998 135 l 998 0 l 878 0 l 878 135 l 607 135 l 607 248 l 864 594 l 998 594 l 998 239 l 1064 239 l 1064 135 l 998 135 m 878 239 l 878 458 l 875 458 l 713 239 l 878 239 m 52 802 l 52 882 q 176 905 122 882 q 243 979 229 928 l 340 979 l 340 379 l 220 379 l 220 802 l 52 802 m 196 -33 l 778 1006 l 886 1006 l 306 -33 l 196 -33 "},"¹":{"ha":500,"x_min":50,"x_max":339,"o":"m 50 802 l 50 882 q 175 905 121 882 q 241 979 228 928 l 339 979 l 339 379 l 218 379 l 218 802 l 50 802 "},"×":{"ha":833,"x_min":77,"x_max":757,"o":"m 318 351 l 77 593 l 196 671 l 196 671 l 415 450 l 415 450 l 637 671 l 637 671 l 757 593 l 514 351 l 757 110 l 637 32 l 637 32 l 415 254 l 415 254 l 196 32 l 196 32 l 77 110 l 318 351 "},"®":{"ha":1111,"x_min":46,"x_max":1065,"o":"m 454 444 l 454 199 l 359 199 l 359 774 l 578 774 q 787 608 787 777 q 746 496 786 532 q 637 452 703 460 l 799 199 l 692 199 l 543 444 l 454 444 m 454 525 l 559 525 q 654 541 615 524 q 693 615 692 555 q 652 680 692 665 q 568 693 615 694 l 454 693 l 454 525 m 1065 496 l 1065 496 q 913 121 1063 260 q 557 -24 768 -21 q 191 126 330 -21 q 46 496 47 271 q 199 873 49 734 q 557 1015 345 1014 q 913 873 768 1014 q 1065 496 1063 734 m 954 496 l 954 496 q 840 807 951 689 q 557 925 728 924 q 273 807 385 924 q 157 496 158 689 q 265 193 158 314 q 557 66 370 69 q 840 187 728 68 q 954 496 951 302 "},"Þ":{"ha":926,"x_min":106,"x_max":880,"o":"m 106 0 l 106 991 l 279 991 l 279 842 l 543 842 q 717 812 648 840 q 819 734 783 782 q 869 636 855 689 q 880 534 880 583 q 869 437 880 489 q 819 338 855 385 q 717 262 783 290 q 543 231 648 232 l 279 231 l 279 0 l 106 0 m 279 700 l 279 372 l 533 372 q 594 382 562 372 q 650 408 625 390 q 692 460 676 427 q 707 536 707 490 q 657 668 705 632 q 603 694 635 686 q 536 700 572 700 l 279 700 "},"¦":{"ha":309,"x_min":83,"x_max":225,"o":"m 83 -123 l 83 224 l 225 224 l 225 -123 l 83 -123 m 83 571 l 83 918 l 225 918 l 225 571 l 83 571 "},"Ð":{"ha":1003,"x_min":12,"x_max":954,"o":"m 106 0 l 106 440 l 12 440 l 12 582 l 106 582 l 106 991 l 517 991 q 851 847 745 989 q 954 496 954 707 q 851 146 954 286 q 517 0 745 3 l 106 0 m 279 850 l 279 582 l 550 582 l 550 440 l 279 440 l 279 142 l 450 142 q 718 244 650 143 q 768 358 754 293 q 779 425 777 390 q 781 496 781 461 q 718 749 783 650 q 618 823 684 797 q 450 850 551 850 l 279 850 "},"½":{"ha":1158,"x_min":50,"x_max":1108,"o":"m 191 -33 l 772 1006 l 880 1006 l 300 -33 l 191 -33 m 50 802 l 50 882 q 175 905 121 882 q 241 979 228 928 l 339 979 l 339 379 l 218 379 l 218 802 l 50 802 m 1095 97 l 1095 0 l 657 0 q 709 161 659 103 q 822 256 758 220 q 883 294 854 277 q 936 329 912 311 q 987 429 986 366 q 958 498 986 475 q 886 522 930 522 q 808 481 829 521 q 785 386 786 439 l 664 386 q 892 619 665 614 q 1046 575 983 619 q 1108 432 1107 528 q 1067 318 1107 364 q 966 236 1025 271 q 863 171 911 204 q 799 97 815 139 l 1095 97 "},"−":{"ha":833,"x_min":66,"x_max":766,"o":"m 766 281 l 66 281 l 66 422 l 766 422 l 766 281 "},"ç":{"ha":772,"x_min":49,"x_max":726,"o":"m 568 269 l 726 269 q 427 -17 680 0 l 378 -81 l 378 -83 q 424 -79 393 -78 q 504 -103 467 -78 q 542 -182 541 -127 q 489 -279 541 -252 q 374 -307 437 -307 q 301 -298 340 -307 q 231 -278 260 -292 l 256 -222 q 346 -244 300 -241 q 404 -233 378 -244 q 431 -187 429 -222 q 411 -147 429 -159 q 367 -135 391 -135 q 313 -149 339 -135 l 282 -122 l 361 -17 q 129 100 208 -1 q 49 351 49 201 q 139 627 49 518 q 403 737 227 736 q 622 675 532 737 q 726 477 713 611 l 568 477 q 404 612 543 611 q 340 604 375 612 q 277 565 307 594 q 228 486 248 538 q 207 351 207 435 q 252 184 207 258 q 397 106 296 107 q 568 269 541 109 "},"ð":{"ha":823,"x_min":58,"x_max":765,"o":"m 415 578 l 415 578 q 262 509 307 576 q 216 340 215 439 q 261 176 216 244 q 400 106 304 107 q 551 179 497 107 q 606 340 604 248 q 561 504 606 433 q 415 578 517 576 m 269 751 l 200 819 l 333 883 q 215 930 271 912 l 321 1015 q 465 946 399 990 l 465 946 l 611 1015 l 611 1015 l 679 947 l 549 884 q 764 429 762 705 q 679 114 765 240 q 390 -20 591 -17 q 146 85 232 -18 q 58 350 58 184 q 143 596 58 493 q 368 703 224 700 q 567 642 477 704 l 570 642 q 419 823 515 750 l 419 823 l 269 751 l 269 751 "},"±":{"ha":833,"x_min":66,"x_max":766,"o":"m 346 529 l 346 703 l 488 703 l 488 529 l 766 529 l 766 387 l 488 387 l 488 214 l 346 214 l 346 387 l 66 387 l 66 529 l 346 529 m 66 0 l 66 142 l 766 142 l 766 0 l 66 0 "},"Ç":{"ha":1003,"x_min":53,"x_max":950,"o":"m 781 378 l 950 378 q 828 92 937 200 q 538 -22 717 -17 l 493 -81 l 493 -83 q 539 -79 509 -78 q 619 -103 582 -78 q 657 -182 656 -127 q 604 -279 656 -252 q 489 -307 553 -307 q 416 -298 456 -307 q 346 -278 375 -292 l 371 -222 q 461 -244 415 -241 q 519 -233 493 -244 q 546 -187 545 -222 q 526 -147 545 -159 q 482 -135 507 -135 q 428 -149 454 -135 l 397 -122 l 473 -21 q 165 149 275 4 q 53 496 54 293 q 179 863 53 715 q 528 1015 304 1013 q 815 926 700 1015 q 949 676 930 838 l 775 676 q 696 818 755 764 q 528 873 636 872 q 298 757 371 871 q 227 496 225 646 q 298 236 225 349 q 528 118 371 121 q 708 195 644 119 q 781 378 771 268 "},"þ":{"ha":848,"x_min":87,"x_max":799,"o":"m 87 -265 l 87 991 l 245 991 l 245 625 l 249 625 q 343 708 283 677 q 463 737 401 737 q 717 627 633 734 q 799 355 799 518 q 725 97 799 207 q 489 -20 648 -17 q 354 7 420 -20 q 249 93 288 33 l 245 93 l 245 -265 l 87 -265 m 640 358 l 640 358 q 590 534 640 460 q 441 612 541 611 q 292 543 342 611 q 240 358 240 475 q 294 179 240 249 q 441 106 346 107 q 596 186 549 107 q 631 268 621 222 q 640 358 640 313 "},"©":{"ha":1111,"x_min":46,"x_max":1065,"o":"m 1065 496 l 1065 496 q 913 121 1063 260 q 557 -24 768 -21 q 191 126 330 -21 q 46 496 47 271 q 199 873 49 734 q 557 1015 345 1014 q 913 873 768 1014 q 1065 496 1063 734 m 954 496 l 954 496 q 840 807 951 689 q 557 925 728 924 q 273 807 385 924 q 157 496 158 689 q 265 193 158 314 q 557 66 370 69 q 840 187 728 68 q 954 496 951 302 m 724 396 l 819 396 q 734 240 802 297 q 574 182 667 182 q 359 273 439 183 q 279 496 279 359 q 358 709 279 627 q 571 794 435 791 q 736 742 668 794 q 818 585 803 688 l 724 585 q 672 672 713 640 q 571 704 632 704 q 437 644 484 703 q 390 496 390 586 q 440 340 390 404 q 574 272 489 273 q 676 309 636 272 q 724 396 717 340 "},"¬":{"ha":833,"x_min":66,"x_max":766,"o":"m 625 150 l 625 420 l 66 420 l 66 562 l 766 562 l 766 150 l 625 150 "},"²":{"ha":500,"x_min":29,"x_max":481,"o":"m 467 476 l 467 379 l 29 379 q 68 521 32 464 q 168 616 104 578 q 294 701 235 657 q 342 750 325 724 q 359 808 359 775 q 330 875 358 854 q 258 895 301 895 q 182 855 204 893 q 157 765 158 817 l 36 765 q 264 991 40 987 q 416 950 354 991 q 481 811 479 907 q 437 697 479 743 q 339 615 396 650 q 235 550 283 581 q 171 476 187 518 l 467 476 "},"³":{"ha":500,"x_min":22,"x_max":479,"o":"m 203 660 l 203 741 q 300 758 258 737 q 343 825 342 778 q 313 879 342 863 q 248 895 282 895 q 174 865 201 893 q 146 789 146 836 l 35 789 q 249 991 50 989 q 390 957 329 991 q 454 831 453 920 q 366 705 454 741 l 366 703 q 479 557 476 677 q 412 416 477 465 q 250 367 349 367 q 22 582 25 370 l 134 582 q 163 500 132 533 q 250 464 192 464 q 335 492 301 464 q 368 562 367 517 q 317 646 367 628 q 264 660 293 656 q 203 660 235 663 "},"™":{"ha":1375,"x_min":82,"x_max":1293,"o":"m 543 991 l 543 901 l 368 901 l 368 419 l 257 419 l 257 901 l 82 901 l 82 991 l 543 991 m 978 586 l 978 586 l 1133 991 l 1293 991 l 1293 419 l 1189 419 l 1189 867 l 1186 867 l 1015 419 l 937 419 l 766 867 l 764 867 l 764 419 l 660 419 l 660 991 l 821 991 l 978 586 "},"°":{"ha":555,"x_min":69,"x_max":486,"o":"m 69 783 l 69 783 q 132 932 71 873 q 278 991 191 990 q 427 932 368 990 q 486 783 485 873 q 427 637 485 696 q 278 575 368 576 q 132 637 191 576 q 69 783 71 696 m 147 783 l 147 783 q 186 692 147 728 q 278 652 222 652 q 371 692 333 652 q 408 783 407 728 q 371 876 407 839 q 278 913 333 912 q 186 876 222 912 q 147 783 147 839 "},"µ":{"ha":797,"x_min":83,"x_max":714,"o":"m 714 718 l 714 0 l 558 0 l 558 100 l 555 100 q 471 14 525 46 q 367 -20 416 -18 q 301 -7 335 -20 q 241 31 268 4 l 241 31 l 241 -265 l 83 -265 l 83 718 l 241 718 l 241 278 q 279 146 241 184 q 379 106 315 106 q 518 163 477 107 q 555 301 555 216 l 555 718 l 714 718 "},"ÿ":{"ha":721,"x_min":4,"x_max":715,"o":"m 277 3 l 4 718 l 178 718 l 366 182 l 368 182 l 550 718 l 715 718 l 436 -39 q 400 -130 418 -86 q 353 -210 379 -174 q 286 -262 326 -243 q 182 -285 244 -283 q 72 -277 126 -285 l 72 -143 q 147 -153 110 -151 q 225 -125 201 -153 q 258 -53 245 -98 l 277 3 m 406 982 l 564 982 l 564 832 l 406 832 l 406 982 m 325 832 l 167 832 l 167 982 l 325 982 l 325 832 "},"ý":{"ha":721,"x_min":4,"x_max":715,"o":"m 277 3 l 4 718 l 178 718 l 366 182 l 368 182 l 550 718 l 715 718 l 436 -39 q 400 -130 418 -86 q 353 -210 379 -174 q 286 -262 326 -243 q 182 -285 244 -283 q 72 -277 126 -285 l 72 -143 q 147 -153 110 -151 q 225 -125 201 -153 q 258 -53 245 -98 l 277 3 m 264 817 l 389 1015 l 576 1015 l 379 817 l 264 817 "},"ù":{"ha":797,"x_min":79,"x_max":714,"o":"m 714 718 l 714 0 l 558 0 l 558 100 l 555 100 q 469 14 525 46 q 351 -20 414 -18 q 83 262 79 -20 l 83 718 l 241 718 l 241 278 q 279 146 241 184 q 379 106 315 106 q 518 163 477 107 q 555 301 555 216 l 555 718 l 714 718 m 191 1015 l 377 1015 l 503 817 l 388 817 l 191 1015 "},"ü":{"ha":797,"x_min":79,"x_max":714,"o":"m 714 718 l 714 0 l 558 0 l 558 100 l 555 100 q 469 14 525 46 q 351 -20 414 -18 q 83 262 79 -20 l 83 718 l 241 718 l 241 278 q 279 146 241 184 q 379 106 315 106 q 518 163 477 107 q 555 301 555 216 l 555 718 l 714 718 m 439 982 l 598 982 l 598 832 l 439 832 l 439 982 m 359 832 l 201 832 l 201 982 l 359 982 l 359 832 "},"û":{"ha":797,"x_min":79,"x_max":714,"o":"m 714 718 l 714 0 l 558 0 l 558 100 l 555 100 q 469 14 525 46 q 351 -20 414 -18 q 83 262 79 -20 l 83 718 l 241 718 l 241 278 q 279 146 241 184 q 379 106 315 106 q 518 163 477 107 q 555 301 555 216 l 555 718 l 714 718 m 397 941 l 300 817 l 172 817 l 321 1015 l 475 1015 l 625 817 l 496 817 l 397 941 l 397 941 "},"ú":{"ha":797,"x_min":79,"x_max":714,"o":"m 714 718 l 714 0 l 558 0 l 558 100 l 555 100 q 469 14 525 46 q 351 -20 414 -18 q 83 262 79 -20 l 83 718 l 241 718 l 241 278 q 279 146 241 184 q 379 106 315 106 q 518 163 477 107 q 555 301 555 216 l 555 718 l 714 718 m 296 817 l 421 1015 l 609 1015 l 412 817 l 296 817 "},"š":{"ha":721,"x_min":45,"x_max":684,"o":"m 45 231 l 203 231 q 256 135 211 163 q 366 106 301 104 q 471 123 416 104 q 525 200 524 142 q 505 252 525 231 q 452 282 485 269 q 290 319 382 304 q 207 343 248 329 q 132 380 165 358 q 81 441 100 406 q 60 532 60 479 q 89 632 60 593 q 161 694 117 672 q 258 729 205 720 q 359 737 311 737 q 558 688 473 737 q 660 517 643 636 l 494 517 q 443 594 484 572 q 349 612 403 612 q 268 600 311 612 q 218 539 220 585 q 239 493 218 510 q 292 463 258 475 q 452 424 359 441 q 538 401 496 415 q 611 362 579 387 q 664 304 644 340 q 684 214 684 268 q 579 35 680 87 q 362 -20 482 -20 q 138 43 225 -20 q 45 231 50 104 m 591 1015 l 440 817 l 286 817 l 138 1015 l 265 1015 l 363 892 l 363 892 l 461 1015 l 591 1015 "},"õ":{"ha":823,"x_min":50,"x_max":775,"o":"m 412 106 l 412 106 q 568 187 518 107 q 616 359 616 262 q 568 533 616 458 q 412 612 518 610 q 258 533 307 610 q 208 359 208 458 q 258 187 208 262 q 412 106 307 107 m 412 -20 l 412 -20 q 146 89 239 -18 q 50 359 50 192 q 146 632 50 528 q 412 737 239 736 q 682 632 587 736 q 775 359 775 528 q 682 89 775 192 q 412 -20 587 -18 m 583 991 l 661 991 q 655 961 659 975 q 646 930 651 945 q 615 879 633 901 q 507 832 580 832 q 458 842 483 832 q 404 859 431 848 q 308 883 348 882 q 268 865 284 883 q 250 826 250 848 l 170 826 q 216 932 179 883 q 315 983 252 982 q 377 977 348 983 q 427 957 405 968 q 473 940 452 947 q 513 930 494 930 q 583 991 572 932 "},"ò":{"ha":823,"x_min":50,"x_max":775,"o":"m 412 106 l 412 106 q 568 187 518 107 q 616 359 616 262 q 568 533 616 458 q 412 612 518 610 q 258 533 307 610 q 208 359 208 458 q 258 187 208 262 q 412 106 307 107 m 412 -20 l 412 -20 q 146 89 239 -18 q 50 359 50 192 q 146 632 50 528 q 412 737 239 736 q 682 632 587 736 q 775 359 775 528 q 682 89 775 192 q 412 -20 587 -18 m 209 1015 l 395 1015 l 521 817 l 406 817 l 209 1015 "},"ö":{"ha":823,"x_min":50,"x_max":775,"o":"m 412 106 l 412 106 q 568 187 518 107 q 616 359 616 262 q 568 533 616 458 q 412 612 518 610 q 258 533 307 610 q 208 359 208 458 q 258 187 208 262 q 412 106 307 107 m 412 -20 l 412 -20 q 146 89 239 -18 q 50 359 50 192 q 146 632 50 528 q 412 737 239 736 q 682 632 587 736 q 775 359 775 528 q 682 89 775 192 q 412 -20 587 -18 m 458 982 l 617 982 l 617 832 l 458 832 l 458 982 m 378 832 l 220 832 l 220 982 l 378 982 l 378 832 "},"ô":{"ha":823,"x_min":50,"x_max":775,"o":"m 412 106 l 412 106 q 568 187 518 107 q 616 359 616 262 q 568 533 616 458 q 412 612 518 610 q 258 533 307 610 q 208 359 208 458 q 258 187 208 262 q 412 106 307 107 m 412 -20 l 412 -20 q 146 89 239 -18 q 50 359 50 192 q 146 632 50 528 q 412 737 239 736 q 682 632 587 736 q 775 359 775 528 q 682 89 775 192 q 412 -20 587 -18 m 416 941 l 319 817 l 191 817 l 340 1015 l 494 1015 l 644 817 l 515 817 l 416 941 l 416 941 "},"ó":{"ha":823,"x_min":50,"x_max":775,"o":"m 412 106 l 412 106 q 568 187 518 107 q 616 359 616 262 q 568 533 616 458 q 412 612 518 610 q 258 533 307 610 q 208 359 208 458 q 258 187 208 262 q 412 106 307 107 m 412 -20 l 412 -20 q 146 89 239 -18 q 50 359 50 192 q 146 632 50 528 q 412 737 239 736 q 682 632 587 736 q 775 359 775 528 q 682 89 775 192 q 412 -20 587 -18 m 315 817 l 440 1015 l 628 1015 l 431 817 l 315 817 "},"ñ":{"ha":797,"x_min":83,"x_max":714,"o":"m 83 0 l 83 718 l 233 718 l 233 612 l 236 610 q 460 737 313 734 q 714 493 708 736 l 714 0 l 555 0 l 555 452 q 415 612 553 614 q 290 558 335 611 q 241 424 241 504 l 241 0 l 83 0 m 569 991 l 646 991 q 641 961 645 975 q 631 930 637 945 q 601 879 618 901 q 492 832 566 832 q 444 842 469 832 q 389 859 417 848 q 294 883 334 882 q 254 865 270 883 q 235 826 235 848 l 156 826 q 202 932 165 883 q 300 983 238 982 q 363 977 334 983 q 413 957 391 968 q 459 940 438 947 q 499 930 479 930 q 569 991 557 932 "},"ì":{"ha":335,"x_min":87,"x_max":245,"o":"m 245 0 l 87 0 l 87 718 l 245 718 l 245 0 m -43 1015 l 142 1015 l 269 817 l 153 817 l -43 1015 "},"ï":{"ha":335,"x_min":87,"x_max":245,"o":"m 245 0 l 87 0 l 87 718 l 245 718 l 245 0 m 205 982 l 363 982 l 363 832 l 205 832 l 205 982 m 124 832 l -34 832 l -34 982 l 124 982 l 124 832 "},"î":{"ha":335,"x_min":87,"x_max":245,"o":"m 245 0 l 87 0 l 87 718 l 245 718 l 245 0 m 162 941 l 64 817 l -63 817 l 85 1015 l 239 1015 l 390 817 l 260 817 l 162 941 l 162 941 "},"í":{"ha":335,"x_min":87,"x_max":245,"o":"m 245 0 l 87 0 l 87 718 l 245 718 l 245 0 m 62 817 l 186 1015 l 374 1015 l 177 817 l 62 817 "},"è":{"ha":772,"x_min":49,"x_max":753,"o":"m 734 318 l 207 318 q 254 171 207 232 q 400 106 302 107 q 575 225 536 106 l 725 225 q 610 45 697 109 q 400 -20 521 -18 q 140 87 231 -17 q 49 358 49 191 q 143 625 49 517 q 396 737 235 734 q 661 610 570 734 q 734 318 753 488 m 207 422 l 576 422 q 525 555 572 500 q 396 612 477 611 q 262 558 314 611 q 207 422 212 505 m 182 1015 l 368 1015 l 494 817 l 379 817 l 182 1015 "},"ë":{"ha":772,"x_min":49,"x_max":753,"o":"m 734 318 l 207 318 q 254 171 207 232 q 400 106 302 107 q 575 225 536 106 l 725 225 q 610 45 697 109 q 400 -20 521 -18 q 140 87 231 -17 q 49 358 49 191 q 143 625 49 517 q 396 737 235 734 q 661 610 570 734 q 734 318 753 488 m 207 422 l 576 422 q 525 555 572 500 q 396 612 477 611 q 262 558 314 611 q 207 422 212 505 m 433 982 l 591 982 l 591 832 l 433 832 l 433 982 m 352 832 l 194 832 l 194 982 l 352 982 l 352 832 "},"ê":{"ha":772,"x_min":49,"x_max":753,"o":"m 734 318 l 207 318 q 254 171 207 232 q 400 106 302 107 q 575 225 536 106 l 725 225 q 610 45 697 109 q 400 -20 521 -18 q 140 87 231 -17 q 49 358 49 191 q 143 625 49 517 q 396 737 235 734 q 661 610 570 734 q 734 318 753 488 m 207 422 l 576 422 q 525 555 572 500 q 396 612 477 611 q 262 558 314 611 q 207 422 212 505 m 390 941 l 292 817 l 165 817 l 313 1015 l 467 1015 l 618 817 l 488 817 l 390 941 l 390 941 "},"é":{"ha":772,"x_min":49,"x_max":753,"o":"m 734 318 l 207 318 q 254 171 207 232 q 400 106 302 107 q 575 225 536 106 l 725 225 q 610 45 697 109 q 400 -20 521 -18 q 140 87 231 -17 q 49 358 49 191 q 143 625 49 517 q 396 737 235 734 q 661 610 570 734 q 734 318 753 488 m 207 422 l 576 422 q 525 555 572 500 q 396 612 477 611 q 262 558 314 611 q 207 422 212 505 m 290 817 l 414 1015 l 602 1015 l 405 817 l 290 817 "},"ã":{"ha":772,"x_min":45,"x_max":761,"o":"m 526 359 l 526 359 q 439 332 490 339 q 332 317 386 325 q 243 285 281 310 q 203 197 203 258 q 256 126 204 146 q 349 106 302 104 q 407 114 376 106 q 464 138 436 122 q 510 179 492 154 q 526 241 526 204 l 526 359 m 685 529 l 685 160 q 722 106 684 104 q 761 109 736 106 l 761 -1 q 661 -20 714 -18 q 582 0 614 -20 q 539 68 550 21 l 539 68 q 425 3 492 24 q 290 -20 357 -20 q 119 33 192 -20 q 45 191 46 86 q 69 301 45 258 q 134 366 93 343 q 222 400 174 387 q 321 414 271 410 q 404 428 366 422 q 472 439 443 432 q 536 515 534 452 q 486 596 534 576 q 387 612 439 614 q 279 586 319 612 q 229 498 236 557 l 71 498 q 106 616 77 570 q 180 689 135 663 q 397 737 275 739 q 594 692 509 737 q 685 529 682 643 m 557 991 l 635 991 q 629 961 633 975 q 620 930 625 945 q 589 879 607 901 q 481 832 554 832 q 432 842 457 832 q 378 859 406 848 q 282 883 322 882 q 242 865 258 883 q 224 826 224 848 l 144 826 q 191 932 153 883 q 289 983 227 982 q 351 977 322 983 q 401 957 379 968 q 448 940 427 947 q 488 930 468 930 q 557 991 546 932 "},"å":{"ha":772,"x_min":45,"x_max":761,"o":"m 526 359 l 526 359 q 439 332 490 339 q 332 317 386 325 q 243 285 281 310 q 203 197 203 258 q 256 126 204 146 q 349 106 302 104 q 407 114 376 106 q 464 138 436 122 q 510 179 492 154 q 526 241 526 204 l 526 359 m 685 529 l 685 160 q 722 106 684 104 q 761 109 736 106 l 761 -1 q 661 -20 714 -18 q 582 0 614 -20 q 539 68 550 21 l 539 68 q 425 3 492 24 q 290 -20 357 -20 q 119 33 192 -20 q 45 191 46 86 q 69 301 45 258 q 134 366 93 343 q 222 400 174 387 q 321 414 271 410 q 404 428 366 422 q 472 439 443 432 q 536 515 534 452 q 486 596 534 576 q 387 612 439 614 q 279 586 319 612 q 229 498 236 557 l 71 498 q 106 616 77 570 q 180 689 135 663 q 397 737 275 739 q 594 692 509 737 q 685 529 682 643 m 394 762 l 394 762 q 294 806 336 762 q 251 905 251 847 q 294 1007 251 965 q 394 1048 336 1047 q 495 1007 454 1047 q 537 905 536 965 q 495 806 536 847 q 394 762 454 762 m 309 905 l 309 905 q 336 847 309 871 q 394 821 359 821 q 454 847 430 821 q 479 905 477 871 q 454 965 477 941 q 394 990 430 989 q 336 965 359 989 q 309 905 309 941 "},"à":{"ha":772,"x_min":45,"x_max":761,"o":"m 526 359 l 526 359 q 439 332 490 339 q 332 317 386 325 q 243 285 281 310 q 203 197 203 258 q 256 126 204 146 q 349 106 302 104 q 407 114 376 106 q 464 138 436 122 q 510 179 492 154 q 526 241 526 204 l 526 359 m 685 529 l 685 160 q 722 106 684 104 q 761 109 736 106 l 761 -1 q 661 -20 714 -18 q 582 0 614 -20 q 539 68 550 21 l 539 68 q 425 3 492 24 q 290 -20 357 -20 q 119 33 192 -20 q 45 191 46 86 q 69 301 45 258 q 134 366 93 343 q 222 400 174 387 q 321 414 271 410 q 404 428 366 422 q 472 439 443 432 q 536 515 534 452 q 486 596 534 576 q 387 612 439 614 q 279 586 319 612 q 229 498 236 557 l 71 498 q 106 616 77 570 q 180 689 135 663 q 397 737 275 739 q 594 692 509 737 q 685 529 682 643 m 184 1015 l 370 1015 l 496 817 l 381 817 l 184 1015 "},"ä":{"ha":772,"x_min":45,"x_max":761,"o":"m 526 359 l 526 359 q 439 332 490 339 q 332 317 386 325 q 243 285 281 310 q 203 197 203 258 q 256 126 204 146 q 349 106 302 104 q 407 114 376 106 q 464 138 436 122 q 510 179 492 154 q 526 241 526 204 l 526 359 m 685 529 l 685 160 q 722 106 684 104 q 761 109 736 106 l 761 -1 q 661 -20 714 -18 q 582 0 614 -20 q 539 68 550 21 l 539 68 q 425 3 492 24 q 290 -20 357 -20 q 119 33 192 -20 q 45 191 46 86 q 69 301 45 258 q 134 366 93 343 q 222 400 174 387 q 321 414 271 410 q 404 428 366 422 q 472 439 443 432 q 536 515 534 452 q 486 596 534 576 q 387 612 439 614 q 279 586 319 612 q 229 498 236 557 l 71 498 q 106 616 77 570 q 180 689 135 663 q 397 737 275 739 q 594 692 509 737 q 685 529 682 643 m 433 982 l 591 982 l 591 832 l 433 832 l 433 982 m 352 832 l 194 832 l 194 982 l 352 982 l 352 832 "},"â":{"ha":772,"x_min":45,"x_max":761,"o":"m 526 359 l 526 359 q 439 332 490 339 q 332 317 386 325 q 243 285 281 310 q 203 197 203 258 q 256 126 204 146 q 349 106 302 104 q 407 114 376 106 q 464 138 436 122 q 510 179 492 154 q 526 241 526 204 l 526 359 m 685 529 l 685 160 q 722 106 684 104 q 761 109 736 106 l 761 -1 q 661 -20 714 -18 q 582 0 614 -20 q 539 68 550 21 l 539 68 q 425 3 492 24 q 290 -20 357 -20 q 119 33 192 -20 q 45 191 46 86 q 69 301 45 258 q 134 366 93 343 q 222 400 174 387 q 321 414 271 410 q 404 428 366 422 q 472 439 443 432 q 536 515 534 452 q 486 596 534 576 q 387 612 439 614 q 279 586 319 612 q 229 498 236 557 l 71 498 q 106 616 77 570 q 180 689 135 663 q 397 737 275 739 q 594 692 509 737 q 685 529 682 643 m 390 941 l 292 817 l 165 817 l 313 1015 l 467 1015 l 618 817 l 488 817 l 390 941 l 390 941 "},"á":{"ha":772,"x_min":45,"x_max":761,"o":"m 526 359 l 526 359 q 439 332 490 339 q 332 317 386 325 q 243 285 281 310 q 203 197 203 258 q 256 126 204 146 q 349 106 302 104 q 407 114 376 106 q 464 138 436 122 q 510 179 492 154 q 526 241 526 204 l 526 359 m 685 529 l 685 160 q 722 106 684 104 q 761 109 736 106 l 761 -1 q 661 -20 714 -18 q 582 0 614 -20 q 539 68 550 21 l 539 68 q 425 3 492 24 q 290 -20 357 -20 q 119 33 192 -20 q 45 191 46 86 q 69 301 45 258 q 134 366 93 343 q 222 400 174 387 q 321 414 271 410 q 404 428 366 422 q 472 439 443 432 q 536 515 534 452 q 486 596 534 576 q 387 612 439 614 q 279 586 319 612 q 229 498 236 557 l 71 498 q 106 616 77 570 q 180 689 135 663 q 397 737 275 739 q 594 692 509 737 q 685 529 682 643 m 290 817 l 414 1015 l 602 1015 l 405 817 l 290 817 "},"Ÿ":{"ha":900,"x_min":-8,"x_max":908,"o":"m 364 0 l 364 389 l -8 991 l 193 991 l 456 547 l 456 547 l 714 991 l 908 991 l 538 389 l 538 0 l 364 0 m 500 1255 l 659 1255 l 659 1105 l 500 1105 l 500 1255 m 419 1105 l 261 1105 l 261 1255 l 419 1255 l 419 1105 "},"Ý":{"ha":900,"x_min":-8,"x_max":908,"o":"m 364 0 l 364 389 l -8 991 l 193 991 l 456 547 l 456 547 l 714 991 l 908 991 l 538 389 l 538 0 l 364 0 m 357 1069 l 481 1268 l 669 1268 l 472 1069 l 357 1069 "},"Ù":{"ha":1003,"x_min":94,"x_max":908,"o":"m 94 357 l 94 991 l 268 991 l 268 414 q 273 314 268 364 q 301 221 279 264 q 371 153 323 179 q 501 126 418 126 q 633 153 586 126 q 703 221 680 179 q 730 314 725 264 q 734 414 734 364 l 734 991 l 908 991 l 908 357 q 797 72 907 168 q 501 -24 688 -24 q 207 72 315 -24 q 94 357 96 168 m 300 1289 l 486 1289 l 612 1090 l 497 1090 l 300 1289 "},"Ü":{"ha":1003,"x_min":94,"x_max":908,"o":"m 94 357 l 94 991 l 268 991 l 268 414 q 273 314 268 364 q 301 221 279 264 q 371 153 323 179 q 501 126 418 126 q 633 153 586 126 q 703 221 680 179 q 730 314 725 264 q 734 414 734 364 l 734 991 l 908 991 l 908 357 q 797 72 907 168 q 501 -24 688 -24 q 207 72 315 -24 q 94 357 96 168 m 549 1255 l 707 1255 l 707 1105 l 549 1105 l 549 1255 m 468 1105 l 310 1105 l 310 1255 l 468 1255 l 468 1105 "},"Û":{"ha":1003,"x_min":94,"x_max":908,"o":"m 94 357 l 94 991 l 268 991 l 268 414 q 273 314 268 364 q 301 221 279 264 q 371 153 323 179 q 501 126 418 126 q 633 153 586 126 q 703 221 680 179 q 730 314 725 264 q 734 414 734 364 l 734 991 l 908 991 l 908 357 q 797 72 907 168 q 501 -24 688 -24 q 207 72 315 -24 q 94 357 96 168 m 507 1215 l 409 1090 l 281 1090 l 430 1289 l 584 1289 l 734 1090 l 605 1090 l 507 1215 l 507 1215 "},"Ú":{"ha":1003,"x_min":94,"x_max":908,"o":"m 94 357 l 94 991 l 268 991 l 268 414 q 273 314 268 364 q 301 221 279 264 q 371 153 323 179 q 501 126 418 126 q 633 153 586 126 q 703 221 680 179 q 730 314 725 264 q 734 414 734 364 l 734 991 l 908 991 l 908 357 q 797 72 907 168 q 501 -24 688 -24 q 207 72 315 -24 q 94 357 96 168 m 406 1069 l 530 1268 l 718 1268 l 521 1069 l 406 1069 "},"Š":{"ha":900,"x_min":46,"x_max":854,"o":"m 46 330 l 220 330 q 294 168 221 216 q 471 118 364 117 q 633 165 585 119 q 680 268 680 210 q 656 353 679 325 q 599 390 632 380 q 302 472 501 424 q 130 578 178 510 q 83 724 82 644 q 199 946 86 873 q 446 1015 307 1015 q 715 936 607 1015 q 826 699 823 855 l 652 699 q 587 835 646 794 q 439 873 530 873 q 378 868 410 873 q 319 847 347 863 q 275 808 292 833 q 257 745 257 782 q 290 663 257 693 q 375 616 322 632 q 661 541 492 587 q 807 439 760 509 q 854 288 854 368 q 732 49 851 122 q 460 -24 614 -24 q 171 62 286 -24 q 46 330 54 147 m 684 1289 l 533 1090 l 379 1090 l 231 1289 l 358 1289 l 456 1165 l 456 1165 l 554 1289 l 684 1289 "},"Õ":{"ha":1055,"x_min":53,"x_max":1003,"o":"m 528 1015 l 528 1015 q 878 863 753 1013 q 1003 496 1002 715 q 878 130 1002 278 q 528 -24 753 -20 q 179 130 304 -20 q 53 496 53 278 q 179 863 53 715 q 528 1015 304 1013 m 528 873 l 528 873 q 298 757 371 871 q 227 496 225 646 q 298 236 225 349 q 528 118 371 121 q 667 151 608 118 q 758 236 724 183 q 829 496 829 349 q 758 757 829 646 q 528 873 688 871 m 704 1265 l 781 1265 q 776 1234 780 1249 q 766 1204 772 1218 q 736 1152 753 1175 q 627 1105 701 1105 q 578 1115 604 1105 q 524 1132 552 1122 q 429 1156 469 1155 q 389 1139 405 1156 q 370 1099 370 1122 l 291 1099 q 337 1205 300 1156 q 435 1257 373 1255 q 498 1250 469 1257 q 548 1230 526 1241 q 594 1213 573 1221 q 634 1204 614 1204 q 704 1265 692 1205 "},"Ò":{"ha":1055,"x_min":53,"x_max":1003,"o":"m 528 1015 l 528 1015 q 878 863 753 1013 q 1003 496 1002 715 q 878 130 1002 278 q 528 -24 753 -20 q 179 130 304 -20 q 53 496 53 278 q 179 863 53 715 q 528 1015 304 1013 m 528 873 l 528 873 q 298 757 371 871 q 227 496 225 646 q 298 236 225 349 q 528 118 371 121 q 667 151 608 118 q 758 236 724 183 q 829 496 829 349 q 758 757 829 646 q 528 873 688 871 m 329 1289 l 515 1289 l 641 1090 l 526 1090 l 329 1289 "},"Ö":{"ha":1055,"x_min":53,"x_max":1003,"o":"m 528 1015 l 528 1015 q 878 863 753 1013 q 1003 496 1002 715 q 878 130 1002 278 q 528 -24 753 -20 q 179 130 304 -20 q 53 496 53 278 q 179 863 53 715 q 528 1015 304 1013 m 528 873 l 528 873 q 298 757 371 871 q 227 496 225 646 q 298 236 225 349 q 528 118 371 121 q 667 151 608 118 q 758 236 724 183 q 829 496 829 349 q 758 757 829 646 q 528 873 688 871 m 578 1255 l 737 1255 l 737 1105 l 578 1105 l 578 1255 m 498 1105 l 340 1105 l 340 1255 l 498 1255 l 498 1105 "},"Ô":{"ha":1055,"x_min":53,"x_max":1003,"o":"m 528 1015 l 528 1015 q 878 863 753 1013 q 1003 496 1002 715 q 878 130 1002 278 q 528 -24 753 -20 q 179 130 304 -20 q 53 496 53 278 q 179 863 53 715 q 528 1015 304 1013 m 528 873 l 528 873 q 298 757 371 871 q 227 496 225 646 q 298 236 225 349 q 528 118 371 121 q 667 151 608 118 q 758 236 724 183 q 829 496 829 349 q 758 757 829 646 q 528 873 688 871 m 536 1215 l 439 1090 l 311 1090 l 460 1289 l 614 1289 l 764 1090 l 635 1090 l 536 1215 l 536 1215 "},"Ó":{"ha":1055,"x_min":53,"x_max":1003,"o":"m 528 1015 l 528 1015 q 878 863 753 1013 q 1003 496 1002 715 q 878 130 1002 278 q 528 -24 753 -20 q 179 130 304 -20 q 53 496 53 278 q 179 863 53 715 q 528 1015 304 1013 m 528 873 l 528 873 q 298 757 371 871 q 227 496 225 646 q 298 236 225 349 q 528 118 371 121 q 667 151 608 118 q 758 236 724 183 q 829 496 829 349 q 758 757 829 646 q 528 873 688 871 m 435 1069 l 560 1268 l 748 1268 l 551 1069 l 435 1069 "},"Ñ":{"ha":1003,"x_min":98,"x_max":903,"o":"m 98 0 l 98 991 l 282 991 l 734 261 l 737 261 l 737 991 l 903 991 l 903 0 l 720 0 l 268 729 l 264 729 l 264 0 l 98 0 m 674 1265 l 751 1265 q 746 1234 750 1249 q 736 1204 742 1218 q 706 1152 724 1175 q 597 1105 671 1105 q 549 1115 574 1105 q 494 1132 522 1122 q 399 1156 439 1155 q 359 1139 375 1156 q 340 1099 340 1122 l 261 1099 q 307 1205 270 1156 q 406 1257 343 1255 q 468 1250 439 1257 q 518 1230 496 1241 q 564 1213 543 1221 q 604 1204 585 1204 q 674 1265 663 1205 "},"Ì":{"ha":386,"x_min":106,"x_max":279,"o":"m 106 0 l 106 991 l 279 991 l 279 0 l 106 0 m -17 1289 l 169 1289 l 295 1090 l 180 1090 l -17 1289 "},"Ï":{"ha":386,"x_min":106,"x_max":279,"o":"m 106 0 l 106 991 l 279 991 l 279 0 l 106 0 m 231 1255 l 390 1255 l 390 1105 l 231 1105 l 231 1255 m 151 1105 l -7 1105 l -7 1255 l 151 1255 l 151 1105 "},"Î":{"ha":386,"x_min":106,"x_max":279,"o":"m 106 0 l 106 991 l 279 991 l 279 0 l 106 0 m 189 1215 l 91 1090 l -37 1090 l 112 1289 l 266 1289 l 416 1090 l 287 1090 l 189 1215 l 189 1215 "},"Í":{"ha":386,"x_min":106,"x_max":279,"o":"m 106 0 l 106 991 l 279 991 l 279 0 l 106 0 m 88 1083 l 213 1282 l 401 1282 l 203 1083 l 88 1083 "},"È":{"ha":875,"x_min":106,"x_max":829,"o":"m 106 0 l 106 991 l 819 991 l 819 842 l 279 842 l 279 582 l 779 582 l 779 440 l 279 440 l 279 150 l 829 150 l 829 0 l 106 0 m 234 1289 l 420 1289 l 546 1090 l 431 1090 l 234 1289 "},"Ë":{"ha":875,"x_min":106,"x_max":829,"o":"m 106 0 l 106 991 l 819 991 l 819 842 l 279 842 l 279 582 l 779 582 l 779 440 l 279 440 l 279 150 l 829 150 l 829 0 l 106 0 m 484 1255 l 643 1255 l 643 1105 l 484 1105 l 484 1255 m 404 1105 l 245 1105 l 245 1255 l 404 1255 l 404 1105 "},"Ê":{"ha":875,"x_min":106,"x_max":829,"o":"m 106 0 l 106 991 l 819 991 l 819 842 l 279 842 l 279 582 l 779 582 l 779 440 l 279 440 l 279 150 l 829 150 l 829 0 l 106 0 m 441 1215 l 344 1090 l 216 1090 l 365 1289 l 519 1289 l 669 1090 l 540 1090 l 441 1215 l 441 1215 "},"É":{"ha":875,"x_min":106,"x_max":829,"o":"m 106 0 l 106 991 l 819 991 l 819 842 l 279 842 l 279 582 l 779 582 l 779 440 l 279 440 l 279 150 l 829 150 l 829 0 l 106 0 m 341 1090 l 466 1289 l 654 1289 l 456 1090 l 341 1090 "},"Ã":{"ha":926,"x_min":-9,"x_max":937,"o":"m 460 821 l 310 395 l 612 395 l 464 821 l 460 821 m -9 0 l 371 991 l 555 991 l 937 0 l 751 0 l 659 262 l 262 262 l 170 0 l -9 0 m 639 1265 l 716 1265 q 711 1234 715 1249 q 701 1204 707 1218 q 671 1152 688 1175 q 562 1105 635 1105 q 513 1115 538 1105 q 459 1132 487 1122 q 363 1156 404 1155 q 323 1139 340 1156 q 305 1099 305 1122 l 226 1099 q 272 1205 235 1156 q 370 1257 308 1255 q 433 1250 404 1257 q 483 1230 460 1241 q 529 1213 508 1221 q 569 1204 549 1204 q 639 1265 627 1205 "},"Å":{"ha":926,"x_min":-9,"x_max":937,"o":"m 460 821 l 310 395 l 612 395 l 464 821 l 460 821 m -9 0 l 371 991 l 555 991 l 937 0 l 751 0 l 659 262 l 262 262 l 170 0 l -9 0 m 474 1036 l 474 1036 q 374 1079 416 1036 q 331 1179 331 1120 q 374 1280 331 1238 q 474 1322 416 1320 q 575 1280 534 1320 q 617 1179 616 1238 q 575 1079 616 1120 q 474 1036 534 1036 m 389 1179 l 389 1179 q 416 1120 389 1144 q 474 1094 439 1094 q 534 1120 510 1094 q 559 1179 557 1144 q 534 1238 557 1215 q 474 1263 510 1262 q 416 1238 439 1262 q 389 1179 389 1215 "},"À":{"ha":926,"x_min":-9,"x_max":937,"o":"m 460 821 l 310 395 l 612 395 l 464 821 l 460 821 m -9 0 l 371 991 l 555 991 l 937 0 l 751 0 l 659 262 l 262 262 l 170 0 l -9 0 m 264 1289 l 450 1289 l 576 1090 l 460 1090 l 264 1289 "},"Ä":{"ha":926,"x_min":-9,"x_max":937,"o":"m 460 821 l 310 395 l 612 395 l 464 821 l 460 821 m -9 0 l 371 991 l 555 991 l 937 0 l 751 0 l 659 262 l 262 262 l 170 0 l -9 0 m 512 1255 l 671 1255 l 671 1105 l 512 1105 l 512 1255 m 431 1105 l 273 1105 l 273 1255 l 431 1255 l 431 1105 "},"Â":{"ha":926,"x_min":-9,"x_max":937,"o":"m 460 821 l 310 395 l 612 395 l 464 821 l 460 821 m -9 0 l 371 991 l 555 991 l 937 0 l 751 0 l 659 262 l 262 262 l 170 0 l -9 0 m 471 1215 l 374 1090 l 246 1090 l 395 1289 l 549 1289 l 699 1090 l 570 1090 l 471 1215 l 471 1215 "},"Á":{"ha":926,"x_min":-9,"x_max":937,"o":"m 460 821 l 310 395 l 612 395 l 464 821 l 460 821 m -9 0 l 371 991 l 555 991 l 937 0 l 751 0 l 659 262 l 262 262 l 170 0 l -9 0 m 370 1069 l 495 1268 l 683 1268 l 486 1069 l 370 1069 "}}}
